<?xml version="1.0" encoding="UTF-8"?>
<!DOCTYPE svg PUBLIC "-//W3C//DTD SVG 1.1//EN" "http://www.w3.org/Graphics/SVG/1.1/DTD/svg11.dtd">
<!-- Creator: CorelDRAW 2018 (64 Bit Versão de avaliação) -->
<svg xmlns="http://www.w3.org/2000/svg" xml:space="preserve" width="32.0442mm" height="16.9016mm" version="1.1" style="shape-rendering:geometricPrecision; text-rendering:geometricPrecision; image-rendering:optimizeQuality; fill-rule:evenodd; clip-rule:evenodd"
viewBox="0 0 1.7482 0.9221"
 xmlns:xlink="http://www.w3.org/1999/xlink">
 <defs>
  <style type="text/css">
   <![CDATA[
    .fil3 {fill:#4B4B4D}
    .fil2 {fill:#201E1E}
    .fil1 {fill:#606062;fill-rule:nonzero}
    .fil0 {fill:#076799;fill-rule:nonzero}
   ]]>
  </style>
 </defs>
 <g id="Camada_x0020_1">
  <metadata id="CorelCorpID_0Corel-Layer"/>
  <g id="_2573980800432">
   <path class="fil0" d="M0.1067 0.2881c0,0.0146 0.0028,0.0282 0.0083,0.0408 0.0055,0.0126 0.013,0.0236 0.0223,0.0329 0.0093,0.0093 0.0203,0.0168 0.0329,0.0223 0.0126,0.0055 0.0262,0.0083 0.0408,0.0083 0.0287,0 0.0558,0.0055 0.0812,0.0166 0.0254,0.0111 0.0476,0.0261 0.0665,0.045 0.0189,0.0189 0.0339,0.0409 0.045,0.0661 0.0111,0.0252 0.0166,0.0521 0.0166,0.0809l0 0.099 -0.0053 0c-0.0136,0 -0.0264,-0.0025 -0.0385,-0.0076 -0.0121,-0.005 -0.0227,-0.0121 -0.0317,-0.0212 -0.0091,-0.0091 -0.0161,-0.0197 -0.0212,-0.0317 -0.005,-0.0121 -0.0076,-0.0249 -0.0076,-0.0385 0,-0.0141 -0.0028,-0.0276 -0.0083,-0.0404 -0.0055,-0.0128 -0.013,-0.0239 -0.0223,-0.0333 -0.0093,-0.0093 -0.0204,-0.0168 -0.0333,-0.0223 -0.0128,-0.0055 -0.0266,-0.0083 -0.0412,-0.0083 -0.0287,0 -0.0558,-0.0054 -0.0812,-0.0162 -0.0254,-0.0108 -0.0476,-0.0257 -0.0665,-0.0446 -0.0189,-0.0189 -0.0338,-0.0411 -0.0446,-0.0665 -0.0108,-0.0254 -0.0162,-0.0525 -0.0162,-0.0812l0 -0.1096 0.0053 0c0.0136,0 0.0264,0.0025 0.0385,0.0076 0.0121,0.005 0.0227,0.0121 0.0317,0.0212 0.0091,0.0091 0.0161,0.0197 0.0212,0.0317 0.005,0.0121 0.0076,0.0249 0.0076,0.0385l0 0.0106zm0.2093 0l0 -0.0106c0,-0.0136 0.0025,-0.0264 0.0076,-0.0385 0.005,-0.0121 0.0121,-0.0227 0.0212,-0.0317 0.0091,-0.0091 0.0197,-0.0161 0.0317,-0.0212 0.0121,-0.005 0.0249,-0.0076 0.0385,-0.0076l0.0053 0 0 0.1096c0,0.0282 -0.0054,0.0553 -0.0162,0.0812 -0.0108,0.026 -0.0266,0.0485 -0.0472,0.0676 -0.0307,-0.0272 -0.0665,-0.0446 -0.1073,-0.0521 0.0202,-0.0076 0.0363,-0.0202 0.0484,-0.0378 0.0121,-0.0176 0.0181,-0.0373 0.0181,-0.059zm-0.1428 0.2154c-0.0202,0.0081 -0.0363,0.0209 -0.0484,0.0385 -0.0121,0.0176 -0.0181,0.0373 -0.0181,0.059 0,0.0136 -0.0025,0.0265 -0.0076,0.0385 -0.005,0.0121 -0.0121,0.0227 -0.0212,0.0317 -0.0091,0.0091 -0.0197,0.0161 -0.0317,0.0212 -0.0121,0.005 -0.0249,0.0076 -0.0385,0.0076l-0.0053 0 0 -0.099c0,-0.0282 0.0054,-0.0553 0.0162,-0.0812 0.0108,-0.026 0.0266,-0.0488 0.0472,-0.0684 0.0307,0.0277 0.0665,0.0451 0.1073,0.0521z"/>
   <path id="1" class="fil0" d="M0.8556 0.3342l0 0.0529c0,0.0217 -0.0042,0.0419 -0.0125,0.0608 -0.0083,0.0189 -0.0195,0.0354 -0.0336,0.0495 -0.0141,0.0141 -0.0307,0.0253 -0.0499,0.0336 -0.0191,0.0083 -0.0396,0.0125 -0.0612,0.0125l-0.136 0 0 0.1564 -0.0053 0c-0.0136,0 -0.0265,-0.0026 -0.0385,-0.0079 -0.0121,-0.0053 -0.0225,-0.0123 -0.0314,-0.0212 -0.0088,-0.0088 -0.0159,-0.0193 -0.0212,-0.0314 -0.0053,-0.0121 -0.0079,-0.0249 -0.0079,-0.0385l0 -0.3711c0.0091,0.0191 0.0225,0.0344 0.0404,0.0457 0.0179,0.0113 0.0374,0.017 0.0586,0.017l0.0053 0 0 0.0945 0 0.0521 0.0106 0 0.1255 0c0.0146,0 0.027,-0.005 0.037,-0.0151 0.0101,-0.0101 0.0151,-0.0224 0.0151,-0.037l0 -0.0529c0,-0.0146 -0.005,-0.027 -0.0151,-0.037 -0.0101,-0.0101 -0.0224,-0.0151 -0.037,-0.0151l-0.136 0 -0.0053 0c-0.0136,0 -0.0265,-0.0025 -0.0385,-0.0076 -0.0121,-0.005 -0.0225,-0.0121 -0.0314,-0.0212 -0.0088,-0.0091 -0.0159,-0.0196 -0.0212,-0.0317 -0.0053,-0.0121 -0.0079,-0.0249 -0.0079,-0.0385l0 -0.0053 0.2403 0c0.0217,0 0.0421,0.0042 0.0612,0.0125 0.0191,0.0083 0.0358,0.0195 0.0499,0.0336 0.0141,0.0141 0.0253,0.0306 0.0336,0.0495 0.0083,0.0189 0.0125,0.0392 0.0125,0.0608z"/>
   <path id="2" class="fil0" d="M1.102 0.6009c0,0.0136 -0.0026,0.0265 -0.0079,0.0385 -0.0053,0.0121 -0.0125,0.0225 -0.0215,0.0314 -0.0091,0.0088 -0.0196,0.0159 -0.0317,0.0212 -0.0121,0.0053 -0.0249,0.0079 -0.0385,0.0079l-0.0045 0 0 -0.4074 0.1043 0 0 0.3084zm0.13 -0.4225l0 0.0045c0,0.0136 -0.0025,0.0264 -0.0076,0.0385 -0.005,0.0121 -0.0121,0.0227 -0.0212,0.0317 -0.0091,0.0091 -0.0197,0.0163 -0.0317,0.0215 -0.0121,0.0053 -0.0249,0.0079 -0.0385,0.0079l-0.266 0 0 -0.0053c0,-0.0136 0.0026,-0.0264 0.0079,-0.0385 0.0053,-0.0121 0.0123,-0.0227 0.0212,-0.0317 0.0088,-0.0091 0.0193,-0.0161 0.0314,-0.0212 0.0121,-0.005 0.0249,-0.0076 0.0385,-0.0076l0.266 0z"/>
   <path id="3" class="fil0" d="M1.3567 0.4914c0,0.0146 0.0028,0.0282 0.0083,0.0408 0.0055,0.0126 0.013,0.0236 0.0223,0.0329 0.0093,0.0093 0.0203,0.0168 0.0329,0.0223 0.0126,0.0055 0.0262,0.0083 0.0408,0.0083 0.0141,0 0.0276,-0.0028 0.0404,-0.0083 0.0128,-0.0055 0.0239,-0.013 0.0333,-0.0223 0.0093,-0.0093 0.0168,-0.0203 0.0223,-0.0329 0.0055,-0.0126 0.0083,-0.0262 0.0083,-0.0408l0 -0.1043c0,-0.0141 -0.0028,-0.0276 -0.0083,-0.0404 -0.0055,-0.0128 -0.013,-0.0239 -0.0223,-0.0333 -0.0093,-0.0093 -0.0204,-0.0168 -0.0333,-0.0223 -0.0129,-0.0055 -0.0263,-0.0083 -0.0404,-0.0083 -0.0202,0 -0.0387,0.0053 -0.0555,0.0159 -0.0169,0.0106 -0.0296,0.0249 -0.0382,0.0431l0 -0.1413c0.0292,-0.0146 0.0605,-0.0219 0.0937,-0.0219 0.0287,0 0.0557,0.0054 0.0809,0.0162 0.0252,0.0108 0.0472,0.0257 0.0661,0.0446 0.0189,0.0189 0.0339,0.0411 0.045,0.0665 0.0111,0.0254 0.0166,0.0525 0.0166,0.0812l0 0.1043c0,0.0287 -0.0055,0.0558 -0.0166,0.0812 -0.0111,0.0254 -0.0261,0.0476 -0.045,0.0665 -0.0189,0.0189 -0.0409,0.0338 -0.0661,0.0446 -0.0252,0.0108 -0.0521,0.0162 -0.0809,0.0162 -0.0287,0 -0.0558,-0.0054 -0.0812,-0.0162 -0.0254,-0.0108 -0.0476,-0.0257 -0.0665,-0.0446 -0.0189,-0.0189 -0.0338,-0.0411 -0.0446,-0.0665 -0.0108,-0.0254 -0.0162,-0.0525 -0.0162,-0.0812l0 -0.1043c0,-0.0378 0.0092,-0.0727 0.0276,-0.1047 0.0184,-0.032 0.044,-0.0573 0.0767,-0.076l0 0.1806 0 0.1043z"/>
   <path class="fil1" d="M0.1277 0.9203l0 0.0017 -0.0597 0c-0.0094,0 -0.0182,-0.0018 -0.0265,-0.0053 -0.0083,-0.0035 -0.0155,-0.0084 -0.0217,-0.0145 -0.0062,-0.0062 -0.011,-0.0134 -0.0145,-0.0217 -0.0035,-0.0083 -0.0053,-0.0171 -0.0053,-0.0265l0 -0.0343c0,-0.0122 0.003,-0.0235 0.009,-0.0339 0.006,-0.0104 0.0143,-0.0188 0.025,-0.025l0 0.0932c0,0.0048 0.0009,0.0092 0.0027,0.0133 0.0018,0.0041 0.0042,0.0077 0.0073,0.0107 0.003,0.003 0.0066,0.0055 0.0107,0.0073 0.0041,0.0018 0.0085,0.0027 0.0133,0.0027l0.0271 0c0.0044,0 0.0086,0.0008 0.0126,0.0025 0.0039,0.0016 0.0074,0.0039 0.0104,0.0069 0.003,0.003 0.0053,0.0064 0.007,0.0104 0.0017,0.0039 0.0026,0.0081 0.0026,0.0126zm0 -0.1687l0 0.0017c0,0.0044 -0.0009,0.0086 -0.0026,0.0126 -0.0017,0.0039 -0.0041,0.0074 -0.007,0.0104 -0.003,0.003 -0.0064,0.0053 -0.0104,0.0069 -0.0039,0.0016 -0.0081,0.0025 -0.0126,0.0025l-0.0271 0c-0.0066,0 -0.0126,0.0018 -0.0181,0.0053 -0.0055,0.0035 -0.0097,0.0082 -0.0124,0.0139l0 -0.0459c0.0094,-0.0049 0.0196,-0.0074 0.0306,-0.0074l0.0597 0z"/>
   <path id="1" class="fil1" d="M0.2725 0.8538c0,0.0094 -0.0018,0.0182 -0.0054,0.0265 -0.0036,0.0083 -0.0085,0.0155 -0.0147,0.0217 -0.0062,0.0062 -0.0134,0.0111 -0.0216,0.0147 -0.0082,0.0036 -0.017,0.0054 -0.0264,0.0054 -0.0094,0 -0.0182,-0.0018 -0.0265,-0.0054 -0.0083,-0.0036 -0.0155,-0.0085 -0.0217,-0.0147 -0.0062,-0.0062 -0.0111,-0.0134 -0.0147,-0.0217 -0.0036,-0.0083 -0.0054,-0.0171 -0.0054,-0.0265l0 -0.1021 0.0017 0c0.0044,0 0.0086,0.0009 0.0126,0.0026 0.0039,0.0017 0.0074,0.004 0.0104,0.0069 0.003,0.0029 0.0053,0.0063 0.007,0.0102 0.0017,0.0039 0.0026,0.0081 0.0026,0.0126l0 0.0698c0,0.0048 0.0009,0.0092 0.0026,0.0133 0.0017,0.0041 0.0042,0.0077 0.0073,0.0108 0.0031,0.0031 0.0067,0.0055 0.0109,0.0073 0.0041,0.0017 0.0085,0.0026 0.0133,0.0026 0.0046,0 0.009,-0.0009 0.0132,-0.0026 0.0042,-0.0017 0.0078,-0.0041 0.0109,-0.0073 0.003,-0.0031 0.0055,-0.0067 0.0073,-0.0108 0.0018,-0.0041 0.0027,-0.0085 0.0027,-0.0133l0 -0.0698c0,-0.0044 0.0009,-0.0086 0.0026,-0.0126 0.0017,-0.0039 0.004,-0.0074 0.0069,-0.0102 0.0029,-0.0029 0.0063,-0.0052 0.0102,-0.0069 0.0039,-0.0017 0.0081,-0.0026 0.0126,-0.0026l0.0017 0 0 0.1021z"/>
   <path id="2" class="fil1" d="M0.4164 0.8027l0 0.0173c0,0.0058 -0.0009,0.0113 -0.0028,0.0166 -0.0019,0.0053 -0.0046,0.0102 -0.008,0.0147 -0.0041,-0.0046 -0.0088,-0.0083 -0.0142,-0.0112 -0.0053,-0.0029 -0.0111,-0.0048 -0.0171,-0.0058 0.0053,-0.0035 0.0079,-0.0082 0.0079,-0.0143l0 -0.0173c0,-0.0048 -0.0016,-0.0088 -0.0049,-0.0121 -0.0033,-0.0033 -0.0073,-0.0049 -0.0121,-0.0049l-0.0488 0 -0.0017 0c-0.0044,0 -0.0086,-0.0008 -0.0126,-0.0025 -0.0039,-0.0016 -0.0074,-0.0039 -0.0102,-0.0069 -0.0029,-0.003 -0.0052,-0.0064 -0.0069,-0.0104 -0.0017,-0.0039 -0.0026,-0.0081 -0.0026,-0.0126l0 -0.0017 0.0828 0c0.0071,0 0.0137,0.0014 0.02,0.0041 0.0062,0.0027 0.0117,0.0064 0.0163,0.011 0.0046,0.0046 0.0083,0.01 0.011,0.0161 0.0027,0.0062 0.0041,0.0128 0.0041,0.0199zm0 0.0853l0 0.034 -0.0086 0c-0.0035,0 -0.0067,-0.0007 -0.0099,-0.002 -0.0031,-0.0013 -0.0059,-0.0031 -0.0083,-0.0054 -0.0024,-0.0023 -0.0042,-0.005 -0.0055,-0.0081 -0.0013,-0.0031 -0.002,-0.0065 -0.002,-0.0101l0 -0.0084c0,-0.0048 -0.0016,-0.0088 -0.0049,-0.0121 -0.0033,-0.0033 -0.0073,-0.0049 -0.0121,-0.0049l-0.0488 0 0 0.051 -0.0017 0c-0.0044,0 -0.0086,-0.0009 -0.0126,-0.0026 -0.0039,-0.0017 -0.0074,-0.004 -0.0102,-0.0069 -0.0029,-0.0029 -0.0052,-0.0063 -0.0069,-0.0102 -0.0017,-0.0039 -0.0026,-0.0081 -0.0026,-0.0126l0 -0.1211c0.003,0.0062 0.0074,0.0112 0.0132,0.0149 0.0058,0.0037 0.0122,0.0055 0.0191,0.0055l0.0017 0 0 0.0478 0.0488 0c0.0071,0 0.0137,0.0013 0.02,0.0039 0.0062,0.0026 0.0117,0.0062 0.0163,0.0108 0.0046,0.0046 0.0083,0.01 0.011,0.0163 0.0027,0.0062 0.0041,0.0129 0.0041,0.02z"/>
   <path id="3" class="fil1" d="M0.5622 0.871c0,0.0071 -0.0014,0.0137 -0.0041,0.0198 -0.0027,0.0062 -0.0064,0.0115 -0.011,0.0161 -0.0046,0.0046 -0.01,0.0083 -0.0161,0.011 -0.0062,0.0027 -0.0128,0.0041 -0.0198,0.0041l-0.0851 0 0 -0.0086c0,-0.0035 0.0007,-0.0067 0.002,-0.0099 0.0013,-0.0031 0.0031,-0.0058 0.0054,-0.0081 0.0023,-0.0023 0.005,-0.0041 0.0081,-0.0054 0.0031,-0.0013 0.0064,-0.002 0.0099,-0.002l0.0597 0c0.0048,0 0.0088,-0.0016 0.0121,-0.0049 0.0033,-0.0033 0.0049,-0.0073 0.0049,-0.0121 0,-0.0048 -0.0016,-0.0088 -0.0049,-0.0121 -0.0033,-0.0033 -0.0073,-0.0049 -0.0121,-0.0049l-0.034 0c-0.0061,0 -0.0118,-0.001 -0.0173,-0.003 -0.0054,-0.002 -0.0104,-0.0048 -0.0148,-0.0084 -0.0044,-0.0036 -0.0082,-0.0079 -0.0113,-0.0128 -0.0031,-0.0049 -0.0053,-0.0104 -0.0067,-0.0163 -0.0013,-0.0062 -0.0014,-0.0124 -0.0004,-0.0186 0.0011,-0.0062 0.0031,-0.0119 0.006,-0.0173 0.003,-0.0053 0.0068,-0.01 0.0115,-0.0141 0.0047,-0.004 0.01,-0.007 0.0159,-0.009l0 0.0481c0,0.0046 0.0017,0.0086 0.0052,0.0121 0.0035,0.0035 0.0074,0.0052 0.0118,0.0052l0.034 0c0.0071,0 0.0137,0.0013 0.02,0.0039 0.0062,0.0026 0.0117,0.0062 0.0163,0.0109 0.0046,0.0046 0.0082,0.01 0.0109,0.0163 0.0026,0.0062 0.0039,0.0129 0.0039,0.02zm-0.0986 -0.0784l0 -0.039c0.0048,-0.0013 0.0093,-0.002 0.0136,-0.002l0.0851 0 0 0.0017c0,0.0044 -0.0008,0.0086 -0.0025,0.0126 -0.0016,0.0039 -0.0039,0.0074 -0.0069,0.0104 -0.003,0.003 -0.0064,0.0053 -0.0104,0.0069 -0.0039,0.0016 -0.0081,0.0025 -0.0126,0.0025l-0.0528 0c-0.0028,0 -0.0053,0.0006 -0.0076,0.0018 -0.0023,0.0012 -0.0043,0.0029 -0.0059,0.0051z"/>
   <path id="4" class="fil1" d="M0.6056 0.854c0,0.0048 0.0009,0.0092 0.0027,0.0133 0.0018,0.0041 0.0042,0.0077 0.0073,0.0107 0.003,0.003 0.0066,0.0055 0.0107,0.0073 0.0041,0.0018 0.0085,0.0027 0.0133,0.0027 0.0046,0 0.009,-0.0009 0.0132,-0.0027 0.0042,-0.0018 0.0078,-0.0042 0.0109,-0.0073 0.003,-0.003 0.0055,-0.0066 0.0073,-0.0107 0.0018,-0.0041 0.0027,-0.0085 0.0027,-0.0133l0 -0.034c0,-0.0046 -0.0009,-0.009 -0.0027,-0.0132 -0.0018,-0.0042 -0.0042,-0.0078 -0.0073,-0.0108 -0.003,-0.003 -0.0067,-0.0055 -0.0109,-0.0073 -0.0042,-0.0018 -0.0086,-0.0027 -0.0132,-0.0027 -0.0066,0 -0.0126,0.0017 -0.0181,0.0052 -0.0055,0.0035 -0.0097,0.0081 -0.0124,0.0141l0 -0.0461c0.0095,-0.0048 0.0197,-0.0072 0.0306,-0.0072 0.0094,0 0.0182,0.0018 0.0264,0.0053 0.0082,0.0035 0.0154,0.0084 0.0216,0.0145 0.0062,0.0062 0.0111,0.0134 0.0147,0.0217 0.0036,0.0083 0.0054,0.0171 0.0054,0.0265l0 0.034c0,0.0094 -0.0018,0.0182 -0.0054,0.0265 -0.0036,0.0083 -0.0085,0.0155 -0.0147,0.0217 -0.0062,0.0062 -0.0134,0.011 -0.0216,0.0145 -0.0082,0.0035 -0.017,0.0053 -0.0264,0.0053 -0.0094,0 -0.0182,-0.0018 -0.0265,-0.0053 -0.0083,-0.0035 -0.0155,-0.0084 -0.0217,-0.0145 -0.0062,-0.0062 -0.011,-0.0134 -0.0145,-0.0217 -0.0035,-0.0083 -0.0053,-0.0171 -0.0053,-0.0265l0 -0.034c0,-0.0123 0.003,-0.0237 0.009,-0.0341 0.006,-0.0104 0.0143,-0.0187 0.025,-0.0248l0 0.0589 0 0.034z"/>
   <path id="5" class="fil1" d="M0.8531 0.871c0,0.0071 -0.0014,0.0137 -0.0041,0.0198 -0.0027,0.0062 -0.0064,0.0115 -0.011,0.0161 -0.0046,0.0046 -0.01,0.0083 -0.0161,0.011 -0.0062,0.0027 -0.0128,0.0041 -0.0198,0.0041l-0.0851 0 0 -0.0086c0,-0.0035 0.0007,-0.0067 0.002,-0.0099 0.0013,-0.0031 0.0031,-0.0058 0.0054,-0.0081 0.0023,-0.0023 0.005,-0.0041 0.0081,-0.0054 0.0031,-0.0013 0.0064,-0.002 0.0099,-0.002l0.0597 0c0.0048,0 0.0088,-0.0016 0.0121,-0.0049 0.0033,-0.0033 0.0049,-0.0073 0.0049,-0.0121 0,-0.0048 -0.0016,-0.0088 -0.0049,-0.0121 -0.0033,-0.0033 -0.0073,-0.0049 -0.0121,-0.0049l-0.034 0c-0.0061,0 -0.0118,-0.001 -0.0173,-0.003 -0.0054,-0.002 -0.0104,-0.0048 -0.0148,-0.0084 -0.0044,-0.0036 -0.0082,-0.0079 -0.0113,-0.0128 -0.0031,-0.0049 -0.0053,-0.0104 -0.0067,-0.0163 -0.0013,-0.0062 -0.0014,-0.0124 -0.0004,-0.0186 0.0011,-0.0062 0.0031,-0.0119 0.006,-0.0173 0.003,-0.0053 0.0068,-0.01 0.0115,-0.0141 0.0047,-0.004 0.01,-0.007 0.0159,-0.009l0 0.0481c0,0.0046 0.0017,0.0086 0.0052,0.0121 0.0035,0.0035 0.0074,0.0052 0.0118,0.0052l0.034 0c0.0071,0 0.0137,0.0013 0.02,0.0039 0.0062,0.0026 0.0117,0.0062 0.0163,0.0109 0.0046,0.0046 0.0082,0.01 0.0109,0.0163 0.0026,0.0062 0.0039,0.0129 0.0039,0.02zm-0.0986 -0.0784l0 -0.039c0.0048,-0.0013 0.0093,-0.002 0.0136,-0.002l0.0851 0 0 0.0017c0,0.0044 -0.0008,0.0086 -0.0025,0.0126 -0.0016,0.0039 -0.0039,0.0074 -0.0069,0.0104 -0.003,0.003 -0.0064,0.0053 -0.0104,0.0069 -0.0039,0.0016 -0.0081,0.0025 -0.0126,0.0025l-0.0528 0c-0.0028,0 -0.0053,0.0006 -0.0076,0.0018 -0.0023,0.0012 -0.0043,0.0029 -0.0059,0.0051z"/>
   <path id="6" class="fil1" d="M0.9887 0.854c0,0.0048 0.0009,0.0092 0.0027,0.0133 0.0018,0.0041 0.0042,0.0077 0.0073,0.0107 0.003,0.003 0.0066,0.0055 0.0107,0.0073 0.0041,0.0018 0.0085,0.0027 0.0133,0.0027 0.0046,0 0.009,-0.0009 0.0132,-0.0027 0.0042,-0.0018 0.0078,-0.0042 0.0109,-0.0073 0.003,-0.003 0.0055,-0.0066 0.0073,-0.0107 0.0018,-0.0041 0.0027,-0.0085 0.0027,-0.0133l0 -0.034c0,-0.0046 -0.0009,-0.009 -0.0027,-0.0132 -0.0018,-0.0042 -0.0042,-0.0078 -0.0073,-0.0108 -0.003,-0.003 -0.0067,-0.0055 -0.0109,-0.0073 -0.0042,-0.0018 -0.0086,-0.0027 -0.0132,-0.0027 -0.0066,0 -0.0126,0.0017 -0.0181,0.0052 -0.0055,0.0035 -0.0097,0.0081 -0.0124,0.0141l0 -0.0461c0.0095,-0.0048 0.0197,-0.0072 0.0306,-0.0072 0.0094,0 0.0182,0.0018 0.0264,0.0053 0.0082,0.0035 0.0154,0.0084 0.0216,0.0145 0.0062,0.0062 0.0111,0.0134 0.0147,0.0217 0.0036,0.0083 0.0054,0.0171 0.0054,0.0265l0 0.034c0,0.0094 -0.0018,0.0182 -0.0054,0.0265 -0.0036,0.0083 -0.0085,0.0155 -0.0147,0.0217 -0.0062,0.0062 -0.0134,0.011 -0.0216,0.0145 -0.0082,0.0035 -0.017,0.0053 -0.0264,0.0053 -0.0094,0 -0.0182,-0.0018 -0.0265,-0.0053 -0.0083,-0.0035 -0.0155,-0.0084 -0.0217,-0.0145 -0.0062,-0.0062 -0.011,-0.0134 -0.0145,-0.0217 -0.0035,-0.0083 -0.0053,-0.0171 -0.0053,-0.0265l0 -0.034c0,-0.0123 0.003,-0.0237 0.009,-0.0341 0.006,-0.0104 0.0143,-0.0187 0.025,-0.0248l0 0.0589 0 0.034z"/>
   <path id="7" class="fil1" d="M1.237 0.7517l0 0.1704 -0.02 0c-0.0043,0 -0.0084,-0.001 -0.0123,-0.0031 -0.0039,-0.0021 -0.0071,-0.005 -0.0094,-0.0088l-0.0947 -0.1487 0 -0.0099 0.0224 0c0.0046,0.0003 0.0086,0.0018 0.012,0.0044 0.0034,0.0026 0.0058,0.0051 0.0073,0.0074l0.0607 0.0949 0 -0.0745c0,-0.0049 0.0009,-0.0094 0.0027,-0.0133 0.0018,-0.0039 0.0042,-0.0073 0.0073,-0.0101 0.003,-0.0028 0.0066,-0.005 0.0107,-0.0065 0.0041,-0.0016 0.0085,-0.0023 0.0133,-0.0023zm-0.1023 0.0698l0 0.0683c0,0.0049 -0.0009,0.0094 -0.0027,0.0133 -0.0018,0.0039 -0.0042,0.0073 -0.0073,0.0101 -0.003,0.0028 -0.0067,0.005 -0.0108,0.0065 -0.0042,0.0016 -0.0086,0.0023 -0.0132,0.0023l0 -0.1541 0.034 0.0535z"/>
   <path id="8" class="fil1" d="M1.3514 0.9203l0 0.0017 -0.0698 0c-0.0044,0 -0.0086,-0.0009 -0.0126,-0.0026 -0.0039,-0.0017 -0.0074,-0.0041 -0.0104,-0.007 -0.003,-0.003 -0.0053,-0.0064 -0.0069,-0.0104 -0.0016,-0.0039 -0.0025,-0.0081 -0.0025,-0.0126l0 -0.0017 0.0698 0c0.0044,0 0.0086,0.0009 0.0126,0.0026 0.0039,0.0017 0.0074,0.0041 0.0102,0.007 0.0029,0.003 0.0052,0.0064 0.0069,0.0104 0.0017,0.0039 0.0026,0.0081 0.0026,0.0126zm-0.0681 -0.1363l0 0.1006 -0.034 0 0 -0.1329 0.0017 0c0.0044,0 0.0086,0.0009 0.0126,0.0026 0.0039,0.0017 0.0074,0.004 0.0102,0.0069 0.0029,0.0029 0.0052,0.0063 0.0069,0.0102 0.0017,0.0039 0.0026,0.0081 0.0026,0.0126z"/>
   <path id="9" class="fil1" d="M1.3933 0.7517l0 0.145c0,0.0035 -0.0007,0.0067 -0.002,0.0099 -0.0013,0.0031 -0.0032,0.0058 -0.0055,0.0081 -0.0024,0.0023 -0.0051,0.0041 -0.0083,0.0054 -0.0031,0.0013 -0.0064,0.002 -0.0099,0.002l-0.0086 0 0 -0.1378c0,-0.0044 0.0009,-0.0086 0.0026,-0.0126 0.0017,-0.0039 0.0041,-0.0074 0.007,-0.0104 0.003,-0.003 0.0064,-0.0053 0.0104,-0.007 0.0039,-0.0017 0.0081,-0.0026 0.0126,-0.0026l0.0017 0z"/>
   <path id="10" class="fil1" d="M1.541 0.7517l0 0.1704 -0.02 0c-0.0043,0 -0.0084,-0.001 -0.0123,-0.0031 -0.0039,-0.0021 -0.0071,-0.005 -0.0094,-0.0088l-0.0947 -0.1487 0 -0.0099 0.0224 0c0.0046,0.0003 0.0086,0.0018 0.012,0.0044 0.0034,0.0026 0.0058,0.0051 0.0073,0.0074l0.0607 0.0949 0 -0.0745c0,-0.0049 0.0009,-0.0094 0.0027,-0.0133 0.0018,-0.0039 0.0042,-0.0073 0.0073,-0.0101 0.003,-0.0028 0.0066,-0.005 0.0107,-0.0065 0.0041,-0.0016 0.0085,-0.0023 0.0133,-0.0023zm-0.1023 0.0698l0 0.0683c0,0.0049 -0.0009,0.0094 -0.0027,0.0133 -0.0018,0.0039 -0.0042,0.0073 -0.0073,0.0101 -0.003,0.0028 -0.0067,0.005 -0.0108,0.0065 -0.0042,0.0016 -0.0086,0.0023 -0.0132,0.0023l0 -0.1541 0.034 0.0535z"/>
   <path id="11" class="fil1" d="M1.6719 0.888l0 0.0017c0,0.0044 -0.0009,0.0086 -0.0026,0.0126 -0.0017,0.0039 -0.0041,0.0074 -0.007,0.0102 -0.003,0.0029 -0.0064,0.0052 -0.0104,0.0069 -0.0039,0.0017 -0.0081,0.0026 -0.0126,0.0026l-0.0611 0c-0.0035,0 -0.0067,-0.0007 -0.0099,-0.002 -0.0031,-0.0013 -0.0059,-0.0032 -0.0083,-0.0055 -0.0024,-0.0024 -0.0042,-0.0051 -0.0055,-0.0083 -0.0013,-0.0031 -0.002,-0.0064 -0.002,-0.0099l0 -0.0424c0,-0.0044 0.0009,-0.0086 0.0026,-0.0126 0.0017,-0.0039 0.004,-0.0074 0.0069,-0.0102 0.0029,-0.0029 0.0063,-0.0052 0.0102,-0.0069 0.0039,-0.0017 0.0081,-0.0026 0.0126,-0.0026l0.0017 0 0.0683 0 0 0.0017c0,0.0044 -0.0009,0.0086 -0.0026,0.0126 -0.0017,0.0039 -0.0041,0.0074 -0.007,0.0102 -0.003,0.0029 -0.0064,0.0052 -0.0104,0.0069 -0.0039,0.0017 -0.0081,0.0026 -0.0126,0.0026l-0.0357 0 0 0.0323 0.0853 0zm0 -0.1363l0 0.0017c0,0.0044 -0.0009,0.0086 -0.0026,0.0126 -0.0017,0.0039 -0.0041,0.0074 -0.007,0.0104 -0.003,0.003 -0.0064,0.0053 -0.0104,0.0069 -0.0039,0.0016 -0.0081,0.0025 -0.0126,0.0025l-0.0528 0 0 0.0325 -0.0017 0c-0.0069,0 -0.0133,0.0018 -0.0191,0.0055 -0.0058,0.0037 -0.0102,0.0087 -0.0132,0.0149l0 -0.0547c0,-0.0044 0.0009,-0.0086 0.0026,-0.0126 0.0017,-0.0039 0.004,-0.0074 0.0069,-0.0102 0.0029,-0.0029 0.0063,-0.0052 0.0102,-0.0069 0.0039,-0.0017 0.0081,-0.0026 0.0126,-0.0026l0.0017 0 0.0853 0z"/>
   <path class="fil2" d="M1.1739 0.1555l0.2879 -0.1555 0.2863 0.1547 -0.0512 0.0287 0 0.0528c0.0059,0.0021 0.0101,0.0077 0.0101,0.0143 0,0.0083 -0.0068,0.0151 -0.0151,0.0151 -0.0083,0 -0.0151,-0.0068 -0.0151,-0.0151 0,-0.0066 0.0042,-0.0122 0.0101,-0.0143l0 -0.0472 -0.0527 0.0296 0 0.0531c-0.1162,-0.0511 -0.2353,-0.0503 -0.3479,0l0 -0.0485 -0.1124 -0.0677z"/>
   <path class="fil3" d="M1.2973 0.1849c0.0567,-0.0678 0.2825,-0.0607 0.3333,0 -0.0188,-0.0882 -0.3363,-0.0793 -0.3333,0z"/>
  </g>
 </g>
</svg>
