<?xml version="1.0" encoding="UTF-8"?>
<!DOCTYPE svg PUBLIC "-//W3C//DTD SVG 1.1//EN" "http://www.w3.org/Graphics/SVG/1.1/DTD/svg11.dtd">
<!-- Creator: CorelDRAW 2018 (64 Bit Versão de avaliação) -->
<svg xmlns="http://www.w3.org/2000/svg" xml:space="preserve" width="32.0442mm" height="16.9016mm" version="1.1" style="shape-rendering:geometricPrecision; text-rendering:geometricPrecision; image-rendering:optimizeQuality; fill-rule:evenodd; clip-rule:evenodd"
viewBox="0 0 5.5328 2.9183"
 xmlns:xlink="http://www.w3.org/1999/xlink">
 <defs>
  <style type="text/css">
   <![CDATA[
    .fil1 {fill:#FEFEFE}
    .fil0 {fill:#FEFEFE;fill-rule:nonzero}
   ]]>
  </style>
 </defs>
 <g id="Camada_x0020_1">
  <metadata id="CorelCorpID_0Corel-Layer"/>
  <g id="_2573980785104">
   <path class="fil0" d="M0.3376 0.9117c0,0.0462 0.0088,0.0893 0.0263,0.1292 0.0175,0.0399 0.0411,0.0745 0.0706,0.104 0.0295,0.0295 0.0642,0.053 0.104,0.0706 0.0399,0.0175 0.0829,0.0263 0.1292,0.0263 0.0909,0 0.1766,0.0175 0.2571,0.0526 0.0805,0.0351 0.1507,0.0825 0.2105,0.1423 0.0598,0.0598 0.1072,0.1296 0.1423,0.2093 0.0351,0.0797 0.0526,0.165 0.0526,0.2559l0 0.3133 -0.0167 0c-0.043,0 -0.0837,-0.008 -0.122,-0.0239 -0.0383,-0.016 -0.0718,-0.0383 -0.1005,-0.067 -0.0287,-0.0287 -0.051,-0.0622 -0.067,-0.1005 -0.016,-0.0383 -0.0239,-0.0789 -0.0239,-0.122 0,-0.0447 -0.0088,-0.0873 -0.0263,-0.128 -0.0175,-0.0407 -0.0411,-0.0757 -0.0706,-0.1052 -0.0295,-0.0295 -0.0646,-0.053 -0.1053,-0.0706 -0.0407,-0.0175 -0.0841,-0.0263 -0.1304,-0.0263 -0.0909,0 -0.1766,-0.0171 -0.2571,-0.0514 -0.0805,-0.0343 -0.1507,-0.0813 -0.2105,-0.1411 -0.0598,-0.0598 -0.1068,-0.13 -0.1411,-0.2105 -0.0343,-0.0805 -0.0514,-0.1662 -0.0514,-0.2571l0 -0.3468 0.0167 0c0.043,0 0.0837,0.008 0.122,0.0239 0.0383,0.0159 0.0718,0.0383 0.1005,0.067 0.0287,0.0287 0.051,0.0622 0.067,0.1005 0.016,0.0383 0.0239,0.0789 0.0239,0.122l0 0.0335zm0.6626 0l0 -0.0335c0,-0.043 0.008,-0.0837 0.0239,-0.122 0.0159,-0.0383 0.0383,-0.0718 0.067,-0.1005 0.0287,-0.0287 0.0622,-0.051 0.1005,-0.067 0.0383,-0.016 0.0789,-0.0239 0.122,-0.0239l0.0167 0 0 0.3468c0,0.0893 -0.0171,0.175 -0.0514,0.2571 -0.0343,0.0821 -0.0841,0.1535 -0.1495,0.2141 -0.0973,-0.0861 -0.2105,-0.1411 -0.3396,-0.165 0.0638,-0.0239 0.1148,-0.0638 0.1531,-0.1196 0.0383,-0.0558 0.0574,-0.118 0.0574,-0.1866zm-0.4521 0.6817c-0.0638,0.0255 -0.1148,0.0662 -0.1531,0.122 -0.0383,0.0558 -0.0574,0.118 -0.0574,0.1866 0,0.0431 -0.008,0.0837 -0.0239,0.122 -0.0159,0.0383 -0.0383,0.0718 -0.067,0.1005 -0.0287,0.0287 -0.0622,0.051 -0.1005,0.067 -0.0383,0.0159 -0.0789,0.0239 -0.122,0.0239l-0.0167 0 0 -0.3133c0,-0.0893 0.0171,-0.175 0.0514,-0.2571 0.0343,-0.0821 0.0841,-0.1543 0.1495,-0.2165 0.0973,0.0877 0.2105,0.1427 0.3397,0.165z"/>
   <path id="1" class="fil0" d="M2.708 1.0576l0 0.1674c0,0.0686 -0.0132,0.1328 -0.0395,0.1926 -0.0263,0.0598 -0.0618,0.112 -0.1064,0.1567 -0.0447,0.0447 -0.0973,0.0801 -0.1579,0.1064 -0.0606,0.0263 -0.1252,0.0395 -0.1937,0.0395l-0.4305 0 0 0.4951 -0.0167 0c-0.0431,0 -0.0837,-0.0084 -0.122,-0.0251 -0.0383,-0.0167 -0.0714,-0.0391 -0.0993,-0.067 -0.0279,-0.0279 -0.0502,-0.061 -0.067,-0.0993 -0.0167,-0.0383 -0.0251,-0.0789 -0.0251,-0.122l0 -1.1744c0.0287,0.0606 0.0714,0.1088 0.128,0.1447 0.0566,0.0359 0.1184,0.0538 0.1854,0.0538l0.0167 0 0 0.299 0 0.165 0.0335 0 0.3971 0c0.0462,0 0.0853,-0.016 0.1172,-0.0478 0.0319,-0.0319 0.0478,-0.071 0.0478,-0.1172l0 -0.1674c0,-0.0463 -0.016,-0.0853 -0.0478,-0.1172 -0.0319,-0.0319 -0.071,-0.0478 -0.1172,-0.0478l-0.4305 0 -0.0167 0c-0.0431,0 -0.0837,-0.008 -0.122,-0.0239 -0.0383,-0.0159 -0.0714,-0.0383 -0.0993,-0.067 -0.0279,-0.0287 -0.0502,-0.0622 -0.067,-0.1005 -0.0167,-0.0383 -0.0251,-0.0789 -0.0251,-0.122l0 -0.0167 0.7606 0c0.0686,0 0.1331,0.0132 0.1937,0.0395 0.0606,0.0263 0.1132,0.0618 0.1579,0.1064 0.0447,0.0447 0.0801,0.0969 0.1064,0.1567 0.0263,0.0598 0.0395,0.124 0.0395,0.1926z"/>
   <path id="2" class="fil0" d="M3.4878 1.902c0,0.0431 -0.0084,0.0837 -0.0251,0.122 -0.0167,0.0383 -0.0395,0.0714 -0.0682,0.0993 -0.0287,0.0279 -0.0622,0.0502 -0.1005,0.067 -0.0383,0.0167 -0.0789,0.0251 -0.122,0.0251l-0.0143 0 0 -1.2893 0.3301 0 0 0.9759zm0.4114 -1.3371l0 0.0143c0,0.043 -0.008,0.0837 -0.0239,0.122 -0.016,0.0383 -0.0383,0.0718 -0.067,0.1005 -0.0287,0.0287 -0.0622,0.0514 -0.1005,0.0682 -0.0383,0.0167 -0.0789,0.0251 -0.122,0.0251l-0.842 0 0 -0.0167c0,-0.043 0.0084,-0.0837 0.0251,-0.122 0.0167,-0.0383 0.0391,-0.0718 0.067,-0.1005 0.0279,-0.0287 0.061,-0.051 0.0993,-0.067 0.0383,-0.016 0.0789,-0.0239 0.122,-0.0239l0.842 0z"/>
   <path id="3" class="fil0" d="M4.2939 1.5551c0,0.0462 0.0088,0.0893 0.0263,0.1292 0.0175,0.0399 0.0411,0.0746 0.0706,0.1041 0.0295,0.0295 0.0642,0.053 0.104,0.0705 0.0399,0.0175 0.0829,0.0263 0.1292,0.0263 0.0447,0 0.0873,-0.0088 0.128,-0.0263 0.0407,-0.0175 0.0757,-0.0411 0.1052,-0.0705 0.0295,-0.0295 0.053,-0.0642 0.0706,-0.1041 0.0175,-0.0399 0.0263,-0.0829 0.0263,-0.1292l0 -0.3301c0,-0.0447 -0.0088,-0.0873 -0.0263,-0.128 -0.0175,-0.0407 -0.0411,-0.0757 -0.0706,-0.1052 -0.0295,-0.0295 -0.0646,-0.053 -0.1052,-0.0706 -0.0407,-0.0175 -0.0833,-0.0263 -0.128,-0.0263 -0.0638,0 -0.1224,0.0167 -0.1758,0.0502 -0.0534,0.0335 -0.0937,0.0789 -0.1208,0.1364l0 -0.4473c0.0925,-0.0462 0.1913,-0.0694 0.2966,-0.0694 0.0909,0 0.1762,0.0171 0.2559,0.0514 0.0797,0.0343 0.1495,0.0813 0.2093,0.1411 0.0598,0.0598 0.1072,0.13 0.1423,0.2105 0.0351,0.0805 0.0526,0.1662 0.0526,0.2571l0 0.3301c0,0.0909 -0.0175,0.1766 -0.0526,0.2571 -0.0351,0.0805 -0.0825,0.1507 -0.1423,0.2105 -0.0598,0.0598 -0.1296,0.1068 -0.2093,0.1411 -0.0797,0.0343 -0.165,0.0514 -0.2559,0.0514 -0.0909,0 -0.1766,-0.0171 -0.2571,-0.0514 -0.0805,-0.0343 -0.1507,-0.0813 -0.2105,-0.1411 -0.0598,-0.0598 -0.1068,-0.13 -0.1411,-0.2105 -0.0343,-0.0805 -0.0514,-0.1662 -0.0514,-0.2571l0 -0.3301c0,-0.1196 0.0291,-0.23 0.0873,-0.3313 0.0582,-0.1013 0.1391,-0.1814 0.2428,-0.2404l0 0.5717 0 0.3301z"/>
   <path class="fil0" d="M0.4042 2.9128l0 0.0055 -0.1888 0c-0.0296,0 -0.0576,-0.0056 -0.0839,-0.0168 -0.0263,-0.0112 -0.0492,-0.0265 -0.0687,-0.046 -0.0195,-0.0195 -0.0349,-0.0424 -0.046,-0.0687 -0.0112,-0.0263 -0.0168,-0.0542 -0.0168,-0.0839l0 -0.1085c0,-0.0385 0.0095,-0.0743 0.0285,-0.1073 0.019,-0.033 0.0454,-0.0594 0.0792,-0.0792l0 0.295c0,0.0151 0.0029,0.0291 0.0086,0.0421 0.0057,0.013 0.0134,0.0243 0.023,0.0339 0.0096,0.0096 0.0209,0.0173 0.0339,0.023 0.013,0.0057 0.0271,0.0086 0.0421,0.0086l0.0858 0c0.014,0 0.0273,0.0026 0.0398,0.0078 0.0125,0.0052 0.0234,0.0125 0.0328,0.0219 0.0094,0.0094 0.0168,0.0203 0.0222,0.0328 0.0055,0.0125 0.0082,0.0257 0.0082,0.0398zm0 -0.5338l0 0.0055c0,0.014 -0.0027,0.0273 -0.0082,0.0398 -0.0055,0.0125 -0.0129,0.0234 -0.0222,0.0328 -0.0094,0.0094 -0.0203,0.0166 -0.0328,0.0218 -0.0125,0.0052 -0.0258,0.0078 -0.0398,0.0078l-0.0858 0c-0.0208,0 -0.0399,0.0056 -0.0574,0.0168 -0.0174,0.0112 -0.0306,0.0259 -0.0394,0.0441l0 -0.1451c0.0297,-0.0156 0.0619,-0.0234 0.0968,-0.0234l0.1888 0z"/>
   <path id="1" class="fil0" d="M0.8623 2.7021c0,0.0296 -0.0057,0.0576 -0.0172,0.0839 -0.0114,0.0263 -0.0269,0.0492 -0.0464,0.0687 -0.0195,0.0195 -0.0423,0.035 -0.0683,0.0464 -0.026,0.0114 -0.0538,0.0172 -0.0835,0.0172 -0.0297,0 -0.0576,-0.0057 -0.0839,-0.0172 -0.0263,-0.0114 -0.0492,-0.0269 -0.0687,-0.0464 -0.0195,-0.0195 -0.035,-0.0424 -0.0464,-0.0687 -0.0114,-0.0263 -0.0172,-0.0542 -0.0172,-0.0839l0 -0.3231 0.0055 0c0.014,0 0.0273,0.0027 0.0398,0.0082 0.0125,0.0055 0.0234,0.0127 0.0328,0.0218 0.0094,0.0091 0.0168,0.0199 0.0222,0.0324 0.0055,0.0125 0.0082,0.0257 0.0082,0.0398l0 0.2208c0,0.0151 0.0027,0.0291 0.0082,0.0421 0.0055,0.013 0.0131,0.0244 0.023,0.0343 0.0099,0.0099 0.0213,0.0176 0.0343,0.023 0.013,0.0055 0.0271,0.0082 0.0421,0.0082 0.0146,0 0.0285,-0.0027 0.0417,-0.0082 0.0133,-0.0055 0.0247,-0.0131 0.0343,-0.023 0.0096,-0.0099 0.0173,-0.0213 0.023,-0.0343 0.0057,-0.013 0.0086,-0.0271 0.0086,-0.0421l0 -0.2208c0,-0.0141 0.0027,-0.0273 0.0082,-0.0398 0.0055,-0.0125 0.0127,-0.0233 0.0218,-0.0324 0.0091,-0.0091 0.0199,-0.0164 0.0324,-0.0218 0.0125,-0.0055 0.0257,-0.0082 0.0398,-0.0082l0.0055 0 0 0.3231z"/>
   <path id="2" class="fil0" d="M1.318 2.5406l0 0.0546c0,0.0182 -0.003,0.0358 -0.009,0.0527 -0.006,0.0169 -0.0144,0.0324 -0.0254,0.0464 -0.013,-0.0146 -0.028,-0.0264 -0.0449,-0.0355 -0.0169,-0.0091 -0.035,-0.0152 -0.0542,-0.0183 0.0166,-0.0109 0.025,-0.026 0.025,-0.0453l0 -0.0546c0,-0.0151 -0.0052,-0.0278 -0.0156,-0.0382 -0.0104,-0.0104 -0.0231,-0.0156 -0.0382,-0.0156l-0.1545 0 -0.0055 0c-0.0141,0 -0.0273,-0.0026 -0.0398,-0.0078 -0.0125,-0.0052 -0.0233,-0.0125 -0.0324,-0.0218 -0.0091,-0.0094 -0.0164,-0.0203 -0.0218,-0.0328 -0.0055,-0.0125 -0.0082,-0.0258 -0.0082,-0.0398l0 -0.0055 0.2622 0c0.0224,0 0.0434,0.0043 0.0632,0.0129 0.0198,0.0086 0.0369,0.0202 0.0515,0.0347 0.0146,0.0146 0.0262,0.0316 0.0347,0.0511 0.0086,0.0195 0.0129,0.0405 0.0129,0.0628zm0 0.27l0 0.1077 -0.0273 0c-0.0109,0 -0.0213,-0.0021 -0.0312,-0.0063 -0.0099,-0.0042 -0.0186,-0.0099 -0.0261,-0.0172 -0.0075,-0.0073 -0.0134,-0.0159 -0.0176,-0.0257 -0.0042,-0.0099 -0.0063,-0.0205 -0.0063,-0.032l0 -0.0265c0,-0.0151 -0.0052,-0.0278 -0.0156,-0.0382 -0.0104,-0.0104 -0.0231,-0.0156 -0.0382,-0.0156l-0.1545 0 0 0.1615 -0.0055 0c-0.0141,0 -0.0273,-0.0027 -0.0398,-0.0082 -0.0125,-0.0055 -0.0233,-0.0127 -0.0324,-0.0218 -0.0091,-0.0091 -0.0164,-0.0199 -0.0218,-0.0324 -0.0055,-0.0125 -0.0082,-0.0257 -0.0082,-0.0398l0 -0.3831c0.0094,0.0198 0.0233,0.0355 0.0417,0.0472 0.0185,0.0117 0.0386,0.0176 0.0605,0.0176l0.0055 0 0 0.1514 0.1545 0c0.0224,0 0.0434,0.0042 0.0632,0.0125 0.0198,0.0083 0.0369,0.0198 0.0515,0.0343 0.0146,0.0146 0.0262,0.0317 0.0347,0.0515 0.0086,0.0198 0.0129,0.0409 0.0129,0.0632z"/>
   <path id="3" class="fil0" d="M1.7792 2.7567c0,0.0224 -0.0043,0.0433 -0.0129,0.0628 -0.0086,0.0195 -0.0201,0.0365 -0.0347,0.0511 -0.0146,0.0146 -0.0316,0.0261 -0.0511,0.0347 -0.0195,0.0086 -0.0405,0.0129 -0.0628,0.0129l-0.2692 0 0 -0.0273c0,-0.0109 0.0021,-0.0213 0.0063,-0.0312 0.0042,-0.0099 0.0099,-0.0185 0.0172,-0.0257 0.0073,-0.0073 0.0159,-0.013 0.0258,-0.0172 0.0099,-0.0042 0.0203,-0.0063 0.0312,-0.0063l0.1888 0c0.0151,0 0.0278,-0.0052 0.0382,-0.0156 0.0104,-0.0104 0.0156,-0.0232 0.0156,-0.0382 0,-0.0151 -0.0052,-0.0278 -0.0156,-0.0382 -0.0104,-0.0104 -0.0231,-0.0156 -0.0382,-0.0156l-0.1077 0c-0.0193,0 -0.0375,-0.0031 -0.0546,-0.0094 -0.0172,-0.0063 -0.0328,-0.0151 -0.0468,-0.0265 -0.014,-0.0114 -0.026,-0.025 -0.0359,-0.0406 -0.0099,-0.0156 -0.0169,-0.0328 -0.0211,-0.0515 -0.0042,-0.0198 -0.0045,-0.0394 -0.0012,-0.0589 0.0034,-0.0195 0.0098,-0.0377 0.0191,-0.0546 0.0094,-0.0169 0.0215,-0.0317 0.0363,-0.0445 0.0148,-0.0127 0.0316,-0.0222 0.0503,-0.0285l0 0.1522c0,0.0146 0.0055,0.0273 0.0164,0.0382 0.0109,0.0109 0.0234,0.0164 0.0375,0.0164l0.1077 0c0.0224,0 0.0434,0.0042 0.0632,0.0125 0.0198,0.0083 0.0369,0.0198 0.0515,0.0343 0.0146,0.0146 0.026,0.0317 0.0343,0.0515 0.0083,0.0198 0.0125,0.0408 0.0125,0.0632zm-0.3121 -0.2481l0 -0.1233c0.0151,-0.0042 0.0294,-0.0063 0.0429,-0.0063l0.2692 0 0 0.0055c0,0.014 -0.0026,0.0273 -0.0078,0.0398 -0.0052,0.0125 -0.0125,0.0234 -0.0218,0.0328 -0.0094,0.0094 -0.0203,0.0166 -0.0328,0.0218 -0.0125,0.0052 -0.0258,0.0078 -0.0398,0.0078l-0.167 0c-0.0088,0 -0.0169,0.002 -0.0242,0.0059 -0.0073,0.0039 -0.0135,0.0092 -0.0187,0.016z"/>
   <path id="4" class="fil0" d="M1.9165 2.7029c0,0.0151 0.0029,0.0291 0.0086,0.0421 0.0057,0.013 0.0134,0.0243 0.023,0.0339 0.0096,0.0096 0.0209,0.0173 0.0339,0.023 0.013,0.0057 0.0271,0.0086 0.0421,0.0086 0.0146,0 0.0285,-0.0029 0.0417,-0.0086 0.0133,-0.0057 0.0247,-0.0134 0.0343,-0.023 0.0096,-0.0096 0.0173,-0.0209 0.023,-0.0339 0.0057,-0.013 0.0086,-0.0271 0.0086,-0.0421l0 -0.1077c0,-0.0146 -0.0028,-0.0285 -0.0086,-0.0417 -0.0057,-0.0133 -0.0134,-0.0247 -0.023,-0.0343 -0.0096,-0.0096 -0.0211,-0.0173 -0.0343,-0.023 -0.0133,-0.0057 -0.0272,-0.0086 -0.0417,-0.0086 -0.0208,0 -0.0399,0.0055 -0.0574,0.0164 -0.0174,0.0109 -0.0306,0.0258 -0.0394,0.0445l0 -0.1459c0.0302,-0.0151 0.0624,-0.0226 0.0968,-0.0226 0.0297,0 0.0575,0.0056 0.0835,0.0168 0.026,0.0112 0.0488,0.0265 0.0683,0.046 0.0195,0.0195 0.035,0.0424 0.0464,0.0687 0.0114,0.0263 0.0172,0.0542 0.0172,0.0839l0 0.1077c0,0.0297 -0.0057,0.0576 -0.0172,0.0839 -0.0114,0.0263 -0.0269,0.0492 -0.0464,0.0687 -0.0195,0.0195 -0.0423,0.0349 -0.0683,0.046 -0.026,0.0112 -0.0538,0.0168 -0.0835,0.0168 -0.0296,0 -0.0576,-0.0056 -0.0839,-0.0168 -0.0263,-0.0112 -0.0492,-0.0265 -0.0687,-0.046 -0.0195,-0.0195 -0.0349,-0.0424 -0.046,-0.0687 -0.0112,-0.0263 -0.0168,-0.0542 -0.0168,-0.0839l0 -0.1077c0,-0.039 0.0095,-0.075 0.0285,-0.1081 0.019,-0.033 0.0454,-0.0592 0.0792,-0.0784l0 0.1865 0 0.1077z"/>
   <path id="5" class="fil0" d="M2.7 2.7567c0,0.0224 -0.0043,0.0433 -0.0129,0.0628 -0.0086,0.0195 -0.0201,0.0365 -0.0347,0.0511 -0.0146,0.0146 -0.0316,0.0261 -0.0511,0.0347 -0.0195,0.0086 -0.0405,0.0129 -0.0628,0.0129l-0.2692 0 0 -0.0273c0,-0.0109 0.0021,-0.0213 0.0063,-0.0312 0.0042,-0.0099 0.0099,-0.0185 0.0172,-0.0257 0.0073,-0.0073 0.0159,-0.013 0.0258,-0.0172 0.0099,-0.0042 0.0203,-0.0063 0.0312,-0.0063l0.1888 0c0.0151,0 0.0278,-0.0052 0.0382,-0.0156 0.0104,-0.0104 0.0156,-0.0232 0.0156,-0.0382 0,-0.0151 -0.0052,-0.0278 -0.0156,-0.0382 -0.0104,-0.0104 -0.0231,-0.0156 -0.0382,-0.0156l-0.1077 0c-0.0193,0 -0.0375,-0.0031 -0.0546,-0.0094 -0.0172,-0.0063 -0.0328,-0.0151 -0.0468,-0.0265 -0.014,-0.0114 -0.026,-0.025 -0.0359,-0.0406 -0.0099,-0.0156 -0.0169,-0.0328 -0.0211,-0.0515 -0.0042,-0.0198 -0.0045,-0.0394 -0.0012,-0.0589 0.0034,-0.0195 0.0098,-0.0377 0.0191,-0.0546 0.0094,-0.0169 0.0215,-0.0317 0.0363,-0.0445 0.0148,-0.0127 0.0316,-0.0222 0.0503,-0.0285l0 0.1522c0,0.0146 0.0055,0.0273 0.0164,0.0382 0.0109,0.0109 0.0234,0.0164 0.0375,0.0164l0.1077 0c0.0224,0 0.0434,0.0042 0.0632,0.0125 0.0198,0.0083 0.0369,0.0198 0.0515,0.0343 0.0146,0.0146 0.026,0.0317 0.0343,0.0515 0.0083,0.0198 0.0125,0.0408 0.0125,0.0632zm-0.3121 -0.2481l0 -0.1233c0.0151,-0.0042 0.0294,-0.0063 0.0429,-0.0063l0.2692 0 0 0.0055c0,0.014 -0.0026,0.0273 -0.0078,0.0398 -0.0052,0.0125 -0.0125,0.0234 -0.0218,0.0328 -0.0094,0.0094 -0.0203,0.0166 -0.0328,0.0218 -0.0125,0.0052 -0.0258,0.0078 -0.0398,0.0078l-0.167 0c-0.0088,0 -0.0169,0.002 -0.0242,0.0059 -0.0073,0.0039 -0.0135,0.0092 -0.0187,0.016z"/>
   <path id="6" class="fil0" d="M3.1292 2.7029c0,0.0151 0.0029,0.0291 0.0086,0.0421 0.0057,0.013 0.0134,0.0243 0.023,0.0339 0.0096,0.0096 0.0209,0.0173 0.0339,0.023 0.013,0.0057 0.0271,0.0086 0.0421,0.0086 0.0146,0 0.0285,-0.0029 0.0417,-0.0086 0.0133,-0.0057 0.0247,-0.0134 0.0343,-0.023 0.0096,-0.0096 0.0173,-0.0209 0.023,-0.0339 0.0057,-0.013 0.0086,-0.0271 0.0086,-0.0421l0 -0.1077c0,-0.0146 -0.0028,-0.0285 -0.0086,-0.0417 -0.0057,-0.0133 -0.0134,-0.0247 -0.023,-0.0343 -0.0096,-0.0096 -0.0211,-0.0173 -0.0343,-0.023 -0.0133,-0.0057 -0.0272,-0.0086 -0.0417,-0.0086 -0.0208,0 -0.0399,0.0055 -0.0574,0.0164 -0.0174,0.0109 -0.0306,0.0258 -0.0394,0.0445l0 -0.1459c0.0302,-0.0151 0.0624,-0.0226 0.0968,-0.0226 0.0297,0 0.0575,0.0056 0.0835,0.0168 0.026,0.0112 0.0488,0.0265 0.0683,0.046 0.0195,0.0195 0.035,0.0424 0.0464,0.0687 0.0114,0.0263 0.0172,0.0542 0.0172,0.0839l0 0.1077c0,0.0297 -0.0057,0.0576 -0.0172,0.0839 -0.0114,0.0263 -0.0269,0.0492 -0.0464,0.0687 -0.0195,0.0195 -0.0423,0.0349 -0.0683,0.046 -0.026,0.0112 -0.0538,0.0168 -0.0835,0.0168 -0.0296,0 -0.0576,-0.0056 -0.0839,-0.0168 -0.0263,-0.0112 -0.0492,-0.0265 -0.0687,-0.046 -0.0195,-0.0195 -0.0349,-0.0424 -0.046,-0.0687 -0.0112,-0.0263 -0.0168,-0.0542 -0.0168,-0.0839l0 -0.1077c0,-0.039 0.0095,-0.075 0.0285,-0.1081 0.019,-0.033 0.0454,-0.0592 0.0792,-0.0784l0 0.1865 0 0.1077z"/>
   <path id="7" class="fil0" d="M3.915 2.379l0 0.5392 -0.0632 0c-0.0135,0 -0.0265,-0.0032 -0.039,-0.0098 -0.0125,-0.0065 -0.0224,-0.0157 -0.0296,-0.0277l-0.2997 -0.4706 0 -0.0312 0.071 0c0.0146,0.0011 0.0272,0.0057 0.0378,0.0141 0.0107,0.0083 0.0183,0.0161 0.023,0.0234l0.192 0.3004 0 -0.2357c0,-0.0156 0.0029,-0.0297 0.0086,-0.0421 0.0057,-0.0125 0.0134,-0.0232 0.023,-0.032 0.0096,-0.0088 0.0209,-0.0157 0.0339,-0.0207 0.013,-0.005 0.0271,-0.0074 0.0421,-0.0074zm-0.3238 0.2208l0 0.2162c0,0.0156 -0.0029,0.0297 -0.0086,0.0421 -0.0057,0.0125 -0.0134,0.0232 -0.023,0.032 -0.0096,0.0088 -0.0211,0.0157 -0.0343,0.0207 -0.0133,0.0049 -0.0272,0.0074 -0.0417,0.0074l0 -0.4877 0.1077 0.1693z"/>
   <path id="8" class="fil0" d="M4.2771 2.9128l0 0.0055 -0.2208 0c-0.0141,0 -0.0273,-0.0027 -0.0398,-0.0082 -0.0125,-0.0055 -0.0234,-0.0129 -0.0328,-0.0222 -0.0094,-0.0094 -0.0166,-0.0203 -0.0219,-0.0328 -0.0052,-0.0125 -0.0078,-0.0257 -0.0078,-0.0398l0 -0.0055 0.2208 0c0.0141,0 0.0273,0.0027 0.0398,0.0082 0.0125,0.0055 0.0233,0.0129 0.0324,0.0223 0.0091,0.0094 0.0164,0.0203 0.0218,0.0328 0.0055,0.0125 0.0082,0.0257 0.0082,0.0398zm-0.2154 -0.4315l0 0.3184 -0.1077 0 0 -0.4206 0.0055 0c0.014,0 0.0273,0.0027 0.0398,0.0082 0.0125,0.0055 0.0233,0.0127 0.0324,0.0218 0.0091,0.0091 0.0164,0.0199 0.0219,0.0324 0.0055,0.0125 0.0082,0.0257 0.0082,0.0398z"/>
   <path id="9" class="fil0" d="M4.4097 2.379l0 0.4588c0,0.0109 -0.0021,0.0213 -0.0063,0.0312 -0.0042,0.0099 -0.01,0.0185 -0.0176,0.0257 -0.0075,0.0073 -0.0162,0.013 -0.0261,0.0172 -0.0099,0.0042 -0.0203,0.0063 -0.0312,0.0063l-0.0273 0 0 -0.4362c0,-0.0141 0.0027,-0.0273 0.0082,-0.0398 0.0055,-0.0125 0.0129,-0.0234 0.0222,-0.0328 0.0094,-0.0094 0.0203,-0.0168 0.0328,-0.0222 0.0125,-0.0055 0.0258,-0.0082 0.0398,-0.0082l0.0055 0z"/>
   <path id="10" class="fil0" d="M4.8772 2.379l0 0.5392 -0.0632 0c-0.0135,0 -0.0265,-0.0032 -0.039,-0.0098 -0.0125,-0.0065 -0.0224,-0.0157 -0.0296,-0.0277l-0.2997 -0.4706 0 -0.0312 0.071 0c0.0146,0.0011 0.0272,0.0057 0.0378,0.0141 0.0107,0.0083 0.0183,0.0161 0.023,0.0234l0.192 0.3004 0 -0.2357c0,-0.0156 0.0029,-0.0297 0.0086,-0.0421 0.0057,-0.0125 0.0134,-0.0232 0.023,-0.032 0.0096,-0.0088 0.0209,-0.0157 0.0339,-0.0207 0.013,-0.005 0.0271,-0.0074 0.0421,-0.0074zm-0.3238 0.2208l0 0.2162c0,0.0156 -0.0029,0.0297 -0.0086,0.0421 -0.0057,0.0125 -0.0134,0.0232 -0.023,0.032 -0.0096,0.0088 -0.0211,0.0157 -0.0343,0.0207 -0.0133,0.0049 -0.0272,0.0074 -0.0417,0.0074l0 -0.4877 0.1077 0.1693z"/>
   <path id="11" class="fil0" d="M5.2915 2.8106l0 0.0055c0,0.0141 -0.0027,0.0273 -0.0082,0.0398 -0.0055,0.0125 -0.0129,0.0233 -0.0223,0.0324 -0.0094,0.0091 -0.0203,0.0164 -0.0328,0.0218 -0.0125,0.0055 -0.0257,0.0082 -0.0398,0.0082l-0.1935 0c-0.0109,0 -0.0213,-0.0021 -0.0312,-0.0063 -0.0099,-0.0042 -0.0186,-0.01 -0.0261,-0.0175 -0.0075,-0.0075 -0.0134,-0.0163 -0.0176,-0.0261 -0.0042,-0.0099 -0.0062,-0.0203 -0.0062,-0.0312l0 -0.1342c0,-0.014 0.0027,-0.0273 0.0082,-0.0398 0.0055,-0.0125 0.0127,-0.0233 0.0219,-0.0324 0.0091,-0.0091 0.0199,-0.0164 0.0324,-0.0219 0.0125,-0.0055 0.0258,-0.0082 0.0398,-0.0082l0.0055 0 0.2162 0 0 0.0055c0,0.0141 -0.0027,0.0273 -0.0082,0.0398 -0.0055,0.0125 -0.0129,0.0233 -0.0222,0.0324 -0.0094,0.0091 -0.0203,0.0164 -0.0328,0.0218 -0.0125,0.0055 -0.0258,0.0082 -0.0398,0.0082l-0.1131 0 0 0.1022 0.27 0zm0 -0.4315l0 0.0055c0,0.014 -0.0027,0.0273 -0.0082,0.0398 -0.0055,0.0125 -0.0129,0.0234 -0.0223,0.0328 -0.0094,0.0094 -0.0203,0.0166 -0.0328,0.0218 -0.0125,0.0052 -0.0257,0.0078 -0.0398,0.0078l-0.167 0 0 0.103 -0.0055 0c-0.0218,0 -0.042,0.0059 -0.0605,0.0176 -0.0185,0.0117 -0.0324,0.0274 -0.0417,0.0472l0 -0.1732c0,-0.0141 0.0027,-0.0273 0.0082,-0.0398 0.0055,-0.0125 0.0127,-0.0233 0.0219,-0.0324 0.0091,-0.0091 0.0199,-0.0164 0.0324,-0.0218 0.0125,-0.0055 0.0258,-0.0082 0.0398,-0.0082l0.0055 0 0.27 0z"/>
   <path class="fil1" d="M3.7154 0.4921l0.9111 -0.4921 0.9062 0.4897 -0.162 0.0909 0 0.167c0.0186,0.0065 0.032,0.0243 0.032,0.0451 0,0.0264 -0.0214,0.0478 -0.0478,0.0478 -0.0264,0 -0.0478,-0.0214 -0.0478,-0.0478 0,-0.0209 0.0134,-0.0386 0.032,-0.0451l0 -0.1492 -0.1669 0.0936 0 0.1681c-0.3679,-0.1616 -0.7447,-0.1592 -1.1012,0l0 -0.1535 -0.3557 -0.2144z"/>
   <path class="fil1" d="M4.1059 0.5851c0.1794,-0.2147 0.8941,-0.1922 1.0549,0 -0.0595,-0.2792 -1.0643,-0.2511 -1.0549,0z"/>
  </g>
 </g>
</svg>
