<?xml version="1.0" encoding="UTF-8"?>
<!DOCTYPE svg PUBLIC "-//W3C//DTD SVG 1.1//EN" "http://www.w3.org/Graphics/SVG/1.1/DTD/svg11.dtd">
<!-- Creator: CorelDRAW 2018 (64 Bit Versão de avaliação) -->
<svg xmlns="http://www.w3.org/2000/svg" xml:space="preserve" width="147.179mm" height="100.856mm" version="1.1" style="shape-rendering:geometricPrecision; text-rendering:geometricPrecision; image-rendering:optimizeQuality; fill-rule:evenodd; clip-rule:evenodd"
viewBox="0 0 58.9602 40.4033"
 xmlns:xlink="http://www.w3.org/1999/xlink">
 <defs>
  <style type="text/css">
   <![CDATA[
    .fil1 {fill:#FFCC29}
    .fil0 {fill:#FFCC29;fill-rule:nonzero}
   ]]>
  </style>
 </defs>
 <g id="Camada_x0020_1">
  <metadata id="CorelCorpID_0Corel-Layer"/>
  <path class="fil0" d="M5.0075 8.0263l0 3.6136 -0.7178 0 0 -8.6995 2.9998 0c0.9116,0 1.6172,0.2345 2.1168,0.6995 0.4996,0.467 0.7504,1.0787 0.7504,1.8394 0,0.7729 -0.2508,1.3908 -0.7504,1.8537 -0.4996,0.4609 -1.2052,0.6933 -2.1168,0.6933l-2.2819 0zm0 -0.6097l2.2819 0c0.7158,0 1.2542,-0.1836 1.6131,-0.5465 0.3569,-0.365 0.5363,-0.8238 0.5363,-1.3786 0,-0.5567 -0.1794,-1.0196 -0.5363,-1.3887 -0.3589,-0.3691 -0.8973,-0.5526 -1.6131,-0.5526l-2.2819 0 0 3.8665z"/>
  <path id="1" class="fil0" d="M18.2159 8.0018c0,1.1236 -0.3079,2.0311 -0.9238,2.7245 -0.6158,0.6933 -1.4397,1.038 -2.4757,1.04 -1.0196,-0.002 -1.8333,-0.3467 -2.441,-1.04 -0.6077,-0.6934 -0.9115,-1.6008 -0.9115,-2.7245l0 -1.4173c0,-1.1175 0.3038,-2.027 0.9095,-2.7225 0.6036,-0.6974 1.4173,-1.0461 2.4369,-1.0461 1.0359,0 1.8618,0.3487 2.4797,1.0461 0.6179,0.6954 0.9258,1.6049 0.9258,2.7225l0 1.4173zm-0.7117 -1.4275c0,-0.9401 -0.2366,-1.6967 -0.7138,-2.2717 -0.4751,-0.573 -1.1359,-0.8606 -1.9801,-0.8606 -0.828,0 -1.4744,0.2876 -1.9353,0.8606 -0.4629,0.5751 -0.6934,1.3316 -0.6934,2.2717l0 1.4275c0,0.9483 0.2325,1.7089 0.6954,2.282 0.4649,0.573 1.1114,0.8606 1.9393,0.8606 0.8484,0 1.5091,-0.2855 1.9801,-0.8585 0.4731,-0.571 0.7076,-1.3316 0.7076,-2.284l0 -1.4275z"/>
  <path id="2" class="fil0" d="M20.767 7.7082l0 3.9317 -0.7178 0 0 -8.6934 2.8978 0c0.932,0 1.6477,0.2039 2.1453,0.6138 0.4976,0.4079 0.7464,1.0033 0.7464,1.7884 0,0.4629 -0.1325,0.8748 -0.3976,1.2399 -0.2651,0.365 -0.6403,0.6301 -1.1257,0.7974 0.5384,0.1346 0.9258,0.3773 1.1624,0.726 0.2366,0.3487 0.3549,0.7851 0.3549,1.3113l0 0.8177c0,0.2712 0.0326,0.5139 0.0958,0.7301 0.0632,0.2141 0.1693,0.3895 0.3161,0.5262l0 0.1427 -0.728 0c-0.1468,-0.1427 -0.2508,-0.3446 -0.312,-0.6036 -0.0591,-0.259 -0.0877,-0.5282 -0.0877,-0.8055l0 -0.7953c0,-0.5343 -0.1733,-0.9544 -0.518,-1.2643 -0.3446,-0.3079 -0.8259,-0.4629 -1.4418,-0.4629l-2.39 0zm0 -0.6097l2.0964 0c0.7851,0 1.3582,-0.157 1.7211,-0.4731 0.3609,-0.3182 0.5425,-0.7444 0.5425,-1.2827 0,-0.573 -0.1795,-1.0135 -0.5404,-1.3235 -0.3609,-0.3079 -0.9075,-0.4629 -1.6396,-0.4629l-2.18 0 0 3.5422z"/>
  <polygon id="3" class="fil0" points="33.4859,3.5501 30.5228,3.5501 30.5228,11.6399 29.8131,11.6399 29.8131,3.5501 26.7481,3.5501 26.7481,2.9404 33.4859,2.9404 "/>
  <path id="4" class="fil0" d="M38.9653 9.2132l-3.8175 0 -0.8769 2.4267 -0.7423 0 3.1976 -8.6995 0.675 0 3.171 8.6995 -0.7402 0 -0.8667 -2.4267zm-3.5891 -0.6383l3.3566 0 -1.6498 -4.6128 -0.0347 0 -1.6722 4.6128z"/>
  <polygon id="5" class="fil0" points="42.636,11.0363 47.1285,11.0363 47.1285,11.6399 41.9182,11.6399 41.9182,2.9404 42.636,2.9404 "/>
  <path class="fil0" d="M4.2898 21.0084l0 -6.6774 2.0364 0c0.8155,0 1.4901,0.2724 2.0239,0.8171 0.5338,0.5447 0.7998,1.2428 0.7998,2.0959l0 0.8578c0,0.8515 -0.2661,1.5496 -0.7998,2.0927 -0.5338,0.5431 -1.2084,0.8139 -2.0239,0.8139l-2.0364 0zm0.5509 -6.2094l0 5.746 1.4854 0c0.6606,0 1.2037,-0.2301 1.6326,-0.6918 0.4273,-0.4617 0.6418,-1.0456 0.6418,-1.7515l0 -0.8718c0,-0.6966 -0.2144,-1.2773 -0.6449,-1.7375 -0.4289,-0.4618 -0.972,-0.6934 -1.6294,-0.6934l-1.4854 0z"/>
  <path id="1" class="fil0" d="M15.5064 18.216c0,0.8625 -0.2364,1.559 -0.7091,2.0912 -0.4727,0.5322 -1.1051,0.7967 -1.9002,0.7983 -0.7826,-0.0016 -1.4072,-0.2661 -1.8736,-0.7983 -0.4665,-0.5322 -0.6997,-1.2287 -0.6997,-2.0912l0 -1.0878c0,-0.8578 0.2332,-1.5559 0.6981,-2.0896 0.4633,-0.5353 1.0878,-0.803 1.8705,-0.803 0.7952,0 1.4291,0.2676 1.9033,0.803 0.4743,0.5338 0.7106,1.2319 0.7106,2.0896l0 1.0878zm-0.5463 -1.0957c0,-0.7216 -0.1816,-1.3023 -0.5479,-1.7437 -0.3647,-0.4399 -0.8718,-0.6606 -1.5198,-0.6606 -0.6355,0 -1.1317,0.2207 -1.4854,0.6606 -0.3553,0.4414 -0.5322,1.0221 -0.5322,1.7437l0 1.0957c0,0.7279 0.1784,1.3117 0.5338,1.7516 0.3569,0.4398 0.853,0.6605 1.4886,0.6605 0.6511,0 1.1583,-0.2191 1.5198,-0.659 0.3631,-0.4383 0.5432,-1.0221 0.5432,-1.7531l0 -1.0957z"/>
  <path id="2" class="fil0" d="M22.7051 19.1458l-2.9302 0 -0.6731 1.8626 -0.5698 0 2.4543 -6.6774 0.5181 0 2.434 6.6774 -0.5682 0 -0.6652 -1.8626zm-2.7549 -0.4899l2.5764 0 -1.2663 -3.5406 -0.0266 0 -1.2835 3.5406z"/>
  <polygon id="3" class="fil0" points="25.5225,20.5451 28.9708,20.5451 28.9708,21.0084 24.9715,21.0084 24.9715,14.331 25.5225,14.331 "/>
  <path id="4" class="fil0" d="M34.5885 14.331l0 4.4344c0,0.7341 -0.2254,1.307 -0.6746,1.7202 -0.4492,0.4132 -1.0268,0.6182 -1.7327,0.6199 -0.6966,-0.0016 -1.2663,-0.2082 -1.7077,-0.6214 -0.4429,-0.4148 -0.6636,-0.9877 -0.6636,-1.7187l0 -4.4344 0.5509 0 0 4.4344c0,0.576 0.1706,1.0315 0.5118,1.3696 0.3397,0.3381 0.7764,0.5072 1.3086,0.5072 0.5447,0 0.9908,-0.1691 1.3383,-0.5056 0.349,-0.335 0.5228,-0.792 0.5228,-1.3712l0 -4.4344 0.5463 0z"/>
  <polygon id="5" class="fil0" points="41.1187,21.0084 40.5678,21.0084 36.7751,15.2952 36.7485,15.2999 36.7485,21.0084 36.1976,21.0084 36.1976,14.331 36.7485,14.331 40.5396,20.0317 40.5678,20.027 40.5678,14.331 41.1187,14.331 "/>
  <path id="6" class="fil0" d="M47.721 18.216c0,0.8625 -0.2364,1.559 -0.7091,2.0912 -0.4727,0.5322 -1.1051,0.7967 -1.9002,0.7983 -0.7826,-0.0016 -1.4072,-0.2661 -1.8736,-0.7983 -0.4665,-0.5322 -0.6997,-1.2287 -0.6997,-2.0912l0 -1.0878c0,-0.8578 0.2332,-1.5559 0.6981,-2.0896 0.4633,-0.5353 1.0878,-0.803 1.8705,-0.803 0.7952,0 1.4291,0.2676 1.9033,0.803 0.4743,0.5338 0.7106,1.2319 0.7106,2.0896l0 1.0878zm-0.5463 -1.0957c0,-0.7216 -0.1816,-1.3023 -0.5479,-1.7437 -0.3647,-0.4399 -0.8718,-0.6606 -1.5198,-0.6606 -0.6355,0 -1.1317,0.2207 -1.4854,0.6606 -0.3553,0.4414 -0.5322,1.0221 -0.5322,1.7437l0 1.0957c0,0.7279 0.1784,1.3117 0.5338,1.7516 0.3569,0.4398 0.853,0.6605 1.4886,0.6605 0.6511,0 1.1583,-0.2191 1.5198,-0.659 0.3631,-0.4383 0.5432,-1.0221 0.5432,-1.7531l0 -1.0957z"/>
  <polygon class="fil0" points="6.4969,29.3785 4.798,29.3785 4.798,31.1113 4.4927,31.1113 4.4927,27.4117 6.7562,27.4117 6.7562,27.671 4.798,27.671 4.798,29.1166 6.4969,29.1166 "/>
  <path id="1" class="fil0" d="M8.9416 31.1113c-0.0191,-0.0963 -0.033,-0.1795 -0.0425,-0.2489 -0.0087,-0.0694 -0.0139,-0.1405 -0.0139,-0.2133 -0.0945,0.1491 -0.2272,0.2723 -0.3989,0.3694 -0.1709,0.0971 -0.3668,0.1457 -0.5888,0.1465 -0.2697,-0.0008 -0.4787,-0.072 -0.627,-0.2151 -0.1474,-0.1431 -0.222,-0.3373 -0.222,-0.5828 0,-0.2463 0.1075,-0.4449 0.3226,-0.5975 0.2151,-0.1526 0.4952,-0.2289 0.8386,-0.2289l0.6756 0 0 -0.34c0,-0.1969 -0.0625,-0.3504 -0.1865,-0.4622 -0.1249,-0.1119 -0.3001,-0.1683 -0.5273,-0.1683 -0.2081,0 -0.3764,0.0512 -0.5038,0.1526 -0.1284,0.1015 -0.1925,0.2298 -0.1925,0.3833l-0.2819 0 -0.0052 -0.0147c-0.0095,-0.2064 0.0789,-0.3885 0.2654,-0.5455 0.1873,-0.1561 0.4319,-0.235 0.7337,-0.235 0.3009,0 0.5437,0.0772 0.7267,0.2315 0.1821,0.1544 0.2741,0.3755 0.2741,0.6634l0 1.3512c0,0.0971 0.0052,0.1908 0.0165,0.2827 0.0113,0.0911 0.0295,0.1813 0.0546,0.2714l-0.3174 0zm-1.0112 -0.2159c0.2333,0 0.4362,-0.0555 0.6071,-0.1665 0.1709,-0.111 0.287,-0.2532 0.3478,-0.4284l0 -0.5256 -0.6782 0c-0.2472,0 -0.451,0.059 -0.6123,0.1769 -0.1613,0.1171 -0.2411,0.2593 -0.2411,0.425 0,0.1561 0.0512,0.2819 0.1535,0.3764 0.1023,0.0945 0.2437,0.1423 0.4232,0.1423z"/>
  <path id="2" class="fil0" d="M11.0047 30.9083c0.1951,0 0.3668,-0.0581 0.5169,-0.1734 0.15,-0.1145 0.2255,-0.2749 0.2255,-0.4796l0.2714 0 0.0052 0.0147c0.0069,0.2541 -0.0937,0.4666 -0.3001,0.6383 -0.2064,0.1709 -0.4458,0.2559 -0.7189,0.2567 -0.366,-0.0008 -0.6504,-0.1292 -0.8551,-0.3868 -0.2038,-0.2575 -0.3061,-0.5871 -0.3061,-0.9878l0 -0.1076c0,-0.3989 0.1015,-0.7276 0.3053,-0.9852 0.2029,-0.2575 0.4874,-0.3868 0.8534,-0.3868 0.2948,0 0.5403,0.0893 0.7371,0.2671 0.196,0.1778 0.2914,0.4119 0.2845,0.7016l-0.0052 0.0147 -0.2714 0c0,-0.2203 -0.072,-0.3954 -0.216,-0.5273 -0.1448,-0.131 -0.3208,-0.1969 -0.529,-0.1969 -0.2879,0 -0.5021,0.1058 -0.6426,0.3174 -0.1405,0.2125 -0.2108,0.477 -0.2108,0.7952l0 0.1076c0,0.3235 0.0703,0.5906 0.2108,0.8013 0.1405,0.2107 0.3555,0.3165 0.6452,0.3165zm0.0763 0.2238l-0.0304 0.163c0.1336,0.0147 0.2411,0.0555 0.3235,0.1231 0.0824,0.0668 0.1231,0.17 0.1231,0.3113 0,0.1535 -0.0668,0.2767 -0.2003,0.3694 -0.1344,0.0919 -0.3252,0.1379 -0.5741,0.1379l-0.0182 -0.1977c0.1526,0 0.281,-0.026 0.385,-0.0772 0.1041,-0.052 0.1561,-0.1275 0.1561,-0.2281 0,-0.0963 -0.0347,-0.1639 -0.1049,-0.2021 -0.0703,-0.0381 -0.1943,-0.0633 -0.3703,-0.0772l0.0737 -0.3226 0.2368 0z"/>
  <path id="3" class="fil0" d="M14.4173 31.1113c-0.0191,-0.0963 -0.033,-0.1795 -0.0425,-0.2489 -0.0087,-0.0694 -0.0139,-0.1405 -0.0139,-0.2133 -0.0945,0.1491 -0.2272,0.2723 -0.3989,0.3694 -0.1709,0.0971 -0.3668,0.1457 -0.5888,0.1465 -0.2697,-0.0008 -0.4787,-0.072 -0.627,-0.2151 -0.1474,-0.1431 -0.222,-0.3373 -0.222,-0.5828 0,-0.2463 0.1075,-0.4449 0.3226,-0.5975 0.2151,-0.1526 0.4952,-0.2289 0.8386,-0.2289l0.6756 0 0 -0.34c0,-0.1969 -0.0625,-0.3504 -0.1865,-0.4622 -0.1249,-0.1119 -0.3001,-0.1683 -0.5273,-0.1683 -0.2081,0 -0.3764,0.0512 -0.5038,0.1526 -0.1284,0.1015 -0.1925,0.2298 -0.1925,0.3833l-0.2819 0 -0.0052 -0.0147c-0.0095,-0.2064 0.0789,-0.3885 0.2654,-0.5455 0.1873,-0.1561 0.4319,-0.235 0.7337,-0.235 0.3009,0 0.5437,0.0772 0.7267,0.2315 0.1821,0.1544 0.2741,0.3755 0.2741,0.6634l0 1.3512c0,0.0971 0.0052,0.1908 0.0165,0.2827 0.0113,0.0911 0.0295,0.1813 0.0546,0.2714l-0.3174 0zm-1.0112 -0.2159c0.2333,0 0.4362,-0.0555 0.6071,-0.1665 0.1709,-0.111 0.287,-0.2532 0.3478,-0.4284l0 -0.5256 -0.6782 0c-0.2472,0 -0.451,0.059 -0.6123,0.1769 -0.1613,0.1171 -0.2411,0.2593 -0.2411,0.425 0,0.1561 0.0512,0.2819 0.1535,0.3764 0.1023,0.0945 0.2437,0.1423 0.4232,0.1423z"/>
  <polygon id="4" class="fil0" points="17.0797,31.1113 16.7779,31.1113 16.7779,27.148 17.0797,27.148 "/>
  <path id="5" class="fil0" d="M17.751 29.6959c0,-0.405 0.111,-0.7363 0.3321,-0.9956 0.222,-0.2593 0.516,-0.3894 0.882,-0.3894 0.3677,0 0.6626,0.1301 0.8846,0.3894 0.2211,0.2593 0.3321,0.5906 0.3321,0.9956l0 0.0841c0,0.4067 -0.1101,0.7389 -0.3313,0.9973 -0.2211,0.2585 -0.5143,0.3868 -0.8802,0.3877 -0.3694,-0.0008 -0.6652,-0.1292 -0.8872,-0.3877 -0.2211,-0.2584 -0.3321,-0.5906 -0.3321,-0.9973l0 -0.0841zm0.3044 0.0841c0,0.3183 0.0806,0.5862 0.2411,0.803 0.1613,0.2168 0.3859,0.3252 0.6738,0.3252 0.2827,0 0.5048,-0.1084 0.6669,-0.3252 0.1613,-0.2168 0.2428,-0.4848 0.2428,-0.803l0 -0.0841c0,-0.3131 -0.0815,-0.5793 -0.2445,-0.7978 -0.1622,-0.2185 -0.3859,-0.3278 -0.6704,-0.3278 -0.2844,0 -0.5073,0.1093 -0.6686,0.3278 -0.1604,0.2185 -0.2411,0.4848 -0.2411,0.7978l0 0.0841z"/>
  <path id="6" class="fil0" d="M20.7082 29.7593c0,-0.438 0.0928,-0.7892 0.2784,-1.0528 0.1856,-0.2636 0.444,-0.3955 0.7762,-0.3955 0.1943,0 0.3642,0.0425 0.5082,0.1257 0.144,0.0841 0.2619,0.2029 0.3556,0.3573l0.0434 -0.4319 0.2463 0 0 2.7648c0,0.3504 -0.0971,0.6201 -0.2897,0.81 -0.1934,0.1899 -0.4666,0.2845 -0.8204,0.2845 -0.1327,0 -0.2732,-0.0156 -0.4232,-0.0477 -0.15,-0.0321 -0.281,-0.0763 -0.3929,-0.1327l0.0581 -0.2567c0.1101,0.0546 0.2281,0.0954 0.3521,0.1231 0.1249,0.0286 0.2584,0.0425 0.4006,0.0425 0.2706,0 0.4735,-0.0694 0.6071,-0.2082 0.1336,-0.1396 0.2003,-0.3443 0.2003,-0.6148l0 -0.3894c-0.0928,0.137 -0.2108,0.2428 -0.3539,0.3165 -0.1431,0.0737 -0.3087,0.1102 -0.4969,0.111 -0.3287,-0.0008 -0.5854,-0.1231 -0.771,-0.3686 -0.1856,-0.2454 -0.2784,-0.5733 -0.2784,-0.9834l0 -0.0538zm0.3053 0.0538c0,0.3321 0.0667,0.5958 0.2003,0.7926 0.1336,0.1969 0.3348,0.2948 0.6019,0.2948 0.1934,0 0.3556,-0.0433 0.4865,-0.1309 0.1318,-0.0876 0.2333,-0.2073 0.3061,-0.3599l0 -1.3104c-0.0694,-0.1544 -0.1674,-0.2801 -0.2957,-0.3772 -0.1275,-0.098 -0.2914,-0.1465 -0.4917,-0.1465 -0.2671,0 -0.4692,0.1101 -0.6045,0.3304 -0.1353,0.2203 -0.2029,0.5047 -0.2029,0.8534l0 0.0538z"/>
  <path id="7" class="fil0" d="M24.054 31.1113l-0.3018 0 0 -2.7491 0.3018 0 0 2.7491zm0 -3.5366l-0.3018 0 0 -0.4267 0.3018 0 0 0.4267z"/>
  <path id="8" class="fil0" d="M25.1641 28.3621l0.0286 0.4778c0.0893,-0.1682 0.209,-0.2974 0.3582,-0.3902 0.1492,-0.0919 0.3261,-0.1388 0.5308,-0.1388 0.2983,0 0.5256,0.0911 0.6808,0.2732 0.1561,0.1821 0.2342,0.4666 0.2342,0.8525l0 1.6746 -0.3053 0 0 -1.672c0,-0.3148 -0.059,-0.5377 -0.176,-0.6678 -0.1179,-0.131 -0.2853,-0.196 -0.5021,-0.196 -0.2168,0 -0.392,0.0538 -0.5247,0.1604 -0.1327,0.1066 -0.2289,0.2497 -0.2879,0.4293l0 1.946 -0.3053 0 0 -2.7491 0.2688 0z"/>
  <path id="9" class="fil0" d="M31.2703 29.813c0,0.4119 -0.0937,0.7398 -0.2801,0.9843 -0.1856,0.2446 -0.4423,0.3669 -0.7692,0.3677 -0.1916,-0.0008 -0.3599,-0.0364 -0.5047,-0.1092 -0.1449,-0.0729 -0.2628,-0.1769 -0.3539,-0.3105l0 1.4231 -0.3053 0 0 -3.8063 0.2333 0 0.0564 0.4293c0.0911,-0.1526 0.2098,-0.2706 0.3555,-0.3547 0.1457,-0.0832 0.3166,-0.1257 0.5134,-0.1257 0.3304,0 0.5888,0.1318 0.7744,0.3955 0.1864,0.2636 0.2801,0.6148 0.2801,1.0528l0 0.0538zm-0.3053 -0.0538c0,-0.3486 -0.0694,-0.6331 -0.2081,-0.8534 -0.1388,-0.2203 -0.3426,-0.3304 -0.6097,-0.3304 -0.2021,0 -0.3668,0.0486 -0.4943,0.1448 -0.1284,0.0963 -0.2246,0.222 -0.2905,0.3764l0 1.3312c0.0711,0.1492 0.1717,0.2662 0.3018,0.3521 0.131,0.085 0.2931,0.1284 0.4883,0.1284 0.2654,0 0.4674,-0.1006 0.6053,-0.3001 0.1379,-0.2003 0.2073,-0.4648 0.2073,-0.7952l0 -0.0538z"/>
  <path id="10" class="fil0" d="M33.6942 31.1113c-0.0191,-0.0963 -0.033,-0.1795 -0.0425,-0.2489 -0.0087,-0.0694 -0.0139,-0.1405 -0.0139,-0.2133 -0.0945,0.1491 -0.2272,0.2723 -0.3989,0.3694 -0.1709,0.0971 -0.3668,0.1457 -0.5888,0.1465 -0.2697,-0.0008 -0.4787,-0.072 -0.627,-0.2151 -0.1474,-0.1431 -0.222,-0.3373 -0.222,-0.5828 0,-0.2463 0.1075,-0.4449 0.3226,-0.5975 0.2151,-0.1526 0.4952,-0.2289 0.8386,-0.2289l0.6756 0 0 -0.34c0,-0.1969 -0.0625,-0.3504 -0.1865,-0.4622 -0.1249,-0.1119 -0.3001,-0.1683 -0.5273,-0.1683 -0.2081,0 -0.3764,0.0512 -0.5038,0.1526 -0.1284,0.1015 -0.1925,0.2298 -0.1925,0.3833l-0.2819 0 -0.0052 -0.0147c-0.0095,-0.2064 0.0789,-0.3885 0.2654,-0.5455 0.1873,-0.1561 0.4319,-0.235 0.7337,-0.235 0.3009,0 0.5437,0.0772 0.7267,0.2315 0.1821,0.1544 0.2741,0.3755 0.2741,0.6634l0 1.3512c0,0.0971 0.0052,0.1908 0.0165,0.2827 0.0113,0.0911 0.0295,0.1813 0.0546,0.2714l-0.3174 0zm-1.0112 -0.2159c0.2333,0 0.4362,-0.0555 0.6071,-0.1665 0.1709,-0.111 0.287,-0.2532 0.3478,-0.4284l0 -0.5256 -0.6782 0c-0.2472,0 -0.451,0.059 -0.6123,0.1769 -0.1613,0.1171 -0.2411,0.2593 -0.2411,0.425 0,0.1561 0.0512,0.2819 0.1535,0.3764 0.1023,0.0945 0.2437,0.1423 0.4232,0.1423z"/>
  <path id="11" class="fil0" d="M36.0062 28.624l-0.2159 -0.0156c-0.1917,0 -0.3486,0.0538 -0.4709,0.1613 -0.1231,0.1075 -0.2108,0.2558 -0.2628,0.4431l0 1.8984 -0.3053 0 0 -2.7491 0.2671 0 0.0381 0.457 0 0.0312c0.0789,-0.17 0.1856,-0.3018 0.32,-0.3972 0.1336,-0.0945 0.2932,-0.1422 0.477,-0.1422 0.0373,0 0.0728,0.0035 0.1067,0.0095 0.0347,0.0061 0.0624,0.0121 0.0841,0.0191l-0.0382 0.2845z"/>
  <path id="12" class="fil0" d="M38.2679 31.1113c-0.0191,-0.0963 -0.033,-0.1795 -0.0425,-0.2489 -0.0087,-0.0694 -0.0139,-0.1405 -0.0139,-0.2133 -0.0945,0.1491 -0.2272,0.2723 -0.3989,0.3694 -0.1709,0.0971 -0.3668,0.1457 -0.5888,0.1465 -0.2697,-0.0008 -0.4787,-0.072 -0.627,-0.2151 -0.1474,-0.1431 -0.222,-0.3373 -0.222,-0.5828 0,-0.2463 0.1075,-0.4449 0.3226,-0.5975 0.2151,-0.1526 0.4952,-0.2289 0.8386,-0.2289l0.6756 0 0 -0.34c0,-0.1969 -0.0625,-0.3504 -0.1865,-0.4622 -0.1249,-0.1119 -0.3001,-0.1683 -0.5273,-0.1683 -0.2081,0 -0.3764,0.0512 -0.5038,0.1526 -0.1284,0.1015 -0.1925,0.2298 -0.1925,0.3833l-0.2819 0 -0.0052 -0.0147c-0.0095,-0.2064 0.0789,-0.3885 0.2654,-0.5455 0.1873,-0.1561 0.4319,-0.235 0.7337,-0.235 0.3009,0 0.5437,0.0772 0.7267,0.2315 0.1821,0.1544 0.2741,0.3755 0.2741,0.6634l0 1.3512c0,0.0971 0.0052,0.1908 0.0165,0.2827 0.0113,0.0911 0.0295,0.1813 0.0546,0.2714l-0.3174 0zm-1.0112 -0.2159c0.2333,0 0.4362,-0.0555 0.6071,-0.1665 0.1709,-0.111 0.287,-0.2532 0.3478,-0.4284l0 -0.5256 -0.6782 0c-0.2472,0 -0.451,0.059 -0.6123,0.1769 -0.1613,0.1171 -0.2411,0.2593 -0.2411,0.425 0,0.1561 0.0512,0.2819 0.1535,0.3764 0.1023,0.0945 0.2437,0.1423 0.4232,0.1423z"/>
  <path id="13" class="fil0" d="M42.3309 31.1113c-0.0191,-0.0963 -0.033,-0.1795 -0.0425,-0.2489 -0.0087,-0.0694 -0.0139,-0.1405 -0.0139,-0.2133 -0.0945,0.1491 -0.2272,0.2723 -0.3989,0.3694 -0.1709,0.0971 -0.3668,0.1457 -0.5888,0.1465 -0.2697,-0.0008 -0.4787,-0.072 -0.627,-0.2151 -0.1474,-0.1431 -0.222,-0.3373 -0.222,-0.5828 0,-0.2463 0.1075,-0.4449 0.3226,-0.5975 0.2151,-0.1526 0.4952,-0.2289 0.8386,-0.2289l0.6756 0 0 -0.34c0,-0.1969 -0.0625,-0.3504 -0.1865,-0.4622 -0.1249,-0.1119 -0.3001,-0.1683 -0.5273,-0.1683 -0.2081,0 -0.3764,0.0512 -0.5038,0.1526 -0.1284,0.1015 -0.1925,0.2298 -0.1925,0.3833l-0.2819 0 -0.0052 -0.0147c-0.0095,-0.2064 0.0789,-0.3885 0.2654,-0.5455 0.1873,-0.1561 0.4319,-0.235 0.7337,-0.235 0.3009,0 0.5437,0.0772 0.7267,0.2315 0.1821,0.1544 0.2741,0.3755 0.2741,0.6634l0 1.3512c0,0.0971 0.0052,0.1908 0.0165,0.2827 0.0113,0.0911 0.0295,0.1813 0.0546,0.2714l-0.3174 0zm-1.0112 -0.2159c0.2333,0 0.4362,-0.0555 0.6071,-0.1665 0.1709,-0.111 0.287,-0.2532 0.3478,-0.4284l0 -0.5256 -0.6782 0c-0.2472,0 -0.451,0.059 -0.6123,0.1769 -0.1613,0.1171 -0.2411,0.2593 -0.2411,0.425 0,0.1561 0.0512,0.2819 0.1535,0.3764 0.1023,0.0945 0.2437,0.1423 0.4232,0.1423z"/>
  <path id="14" class="fil0" d="M44.3941 30.9083c0.1951,0 0.3668,-0.0581 0.5169,-0.1734 0.15,-0.1145 0.2255,-0.2749 0.2255,-0.4796l0.2714 0 0.0052 0.0147c0.0069,0.2541 -0.0937,0.4666 -0.3001,0.6383 -0.2064,0.1709 -0.4458,0.2559 -0.7189,0.2567 -0.366,-0.0008 -0.6504,-0.1292 -0.8551,-0.3868 -0.2038,-0.2575 -0.3061,-0.5871 -0.3061,-0.9878l0 -0.1076c0,-0.3989 0.1015,-0.7276 0.3053,-0.9852 0.2029,-0.2575 0.4874,-0.3868 0.8534,-0.3868 0.2948,0 0.5403,0.0893 0.7371,0.2671 0.196,0.1778 0.2914,0.4119 0.2845,0.7016l-0.0052 0.0147 -0.2714 0c0,-0.2203 -0.072,-0.3954 -0.216,-0.5273 -0.1448,-0.131 -0.3208,-0.1969 -0.529,-0.1969 -0.2879,0 -0.5021,0.1058 -0.6426,0.3174 -0.1405,0.2125 -0.2108,0.477 -0.2108,0.7952l0 0.1076c0,0.3235 0.0703,0.5906 0.2108,0.8013 0.1405,0.2107 0.3555,0.3165 0.6452,0.3165z"/>
  <path id="15" class="fil0" d="M47.1102 31.165c-0.3555,-0.0008 -0.6443,-0.1266 -0.8663,-0.3781 -0.222,-0.2515 -0.333,-0.5741 -0.333,-0.9687l0 -0.1396c0,-0.3963 0.1127,-0.7232 0.3365,-0.9808 0.2246,-0.2575 0.503,-0.3868 0.8351,-0.3868 0.3339,0 0.5914,0.1075 0.7736,0.3218 0.1821,0.2142 0.2732,0.503 0.2732,0.8655l0 0.2359 -1.9131 0 0 0.0841c0,0.3131 0.0789,0.5732 0.2376,0.7796 0.1578,0.2064 0.3772,0.3105 0.6565,0.3105 0.1674,0 0.3218,-0.0277 0.4623,-0.0832 0.1405,-0.0546 0.2575,-0.1292 0.3504,-0.222l0.1301 0.2082c-0.0963,0.1015 -0.2229,0.1864 -0.3799,0.2532 -0.157,0.0668 -0.3443,0.0997 -0.5628,0.1006zm-0.0277 -2.5947c-0.2342,0 -0.4258,0.0841 -0.5767,0.2515 -0.1509,0.1683 -0.2394,0.3807 -0.2645,0.6383l0.0078 0.0147 1.5749 0 0 -0.0633c0,-0.2437 -0.0633,-0.4449 -0.1916,-0.6036 -0.1275,-0.1578 -0.3113,-0.2376 -0.5498,-0.2376z"/>
  <path id="16" class="fil0" d="M50.3901 30.4071c0,-0.1284 -0.0529,-0.2402 -0.1587,-0.3365 -0.1058,-0.0954 -0.2966,-0.1734 -0.5724,-0.235 -0.3252,-0.0677 -0.5672,-0.1604 -0.7259,-0.2784 -0.1578,-0.1171 -0.2376,-0.2818 -0.2376,-0.4934 0,-0.2108 0.0885,-0.3885 0.2654,-0.5342 0.1769,-0.1457 0.4119,-0.2185 0.7025,-0.2185 0.307,0 0.5515,0.078 0.7345,0.2333 0.183,0.1544 0.2706,0.3452 0.2619,0.5724l-0.0052 0.0156 -0.2819 0c0,-0.1509 -0.065,-0.2819 -0.1943,-0.3937 -0.1301,-0.1119 -0.3009,-0.1683 -0.5151,-0.1683 -0.2194,0 -0.3859,0.0486 -0.4978,0.1448 -0.1119,0.0971 -0.1674,0.209 -0.1674,0.3382 0,0.1249 0.0477,0.2289 0.1431,0.3113 0.0963,0.0824 0.2871,0.1544 0.5732,0.2168 0.3218,0.0711 0.5655,0.1708 0.7302,0.2974 0.1656,0.1275 0.2481,0.2983 0.2481,0.5134 0,0.2289 -0.0928,0.4145 -0.2784,0.5576 -0.1856,0.1431 -0.4301,0.2142 -0.7354,0.2151 -0.3339,-0.0008 -0.5958,-0.0798 -0.7866,-0.2394 -0.1899,-0.1587 -0.2801,-0.3486 -0.2706,-0.5689l0.0052 -0.0156 0.2792 0c0.0121,0.1986 0.0928,0.3426 0.2428,0.4319 0.15,0.0902 0.3269,0.1353 0.5299,0.1353 0.2203,0 0.3937,-0.0494 0.5212,-0.1474 0.1266,-0.0989 0.1899,-0.2159 0.1899,-0.3538z"/>
  <path id="17" class="fil0" d="M53.0404 30.4071c0,-0.1284 -0.0529,-0.2402 -0.1587,-0.3365 -0.1058,-0.0954 -0.2966,-0.1734 -0.5724,-0.235 -0.3252,-0.0677 -0.5672,-0.1604 -0.7259,-0.2784 -0.1578,-0.1171 -0.2376,-0.2818 -0.2376,-0.4934 0,-0.2108 0.0885,-0.3885 0.2654,-0.5342 0.1769,-0.1457 0.4119,-0.2185 0.7025,-0.2185 0.307,0 0.5515,0.078 0.7345,0.2333 0.183,0.1544 0.2706,0.3452 0.2619,0.5724l-0.0052 0.0156 -0.2819 0c0,-0.1509 -0.065,-0.2819 -0.1943,-0.3937 -0.1301,-0.1119 -0.3009,-0.1683 -0.5151,-0.1683 -0.2194,0 -0.3859,0.0486 -0.4978,0.1448 -0.1119,0.0971 -0.1674,0.209 -0.1674,0.3382 0,0.1249 0.0477,0.2289 0.1431,0.3113 0.0963,0.0824 0.2871,0.1544 0.5732,0.2168 0.3218,0.0711 0.5655,0.1708 0.7302,0.2974 0.1656,0.1275 0.2481,0.2983 0.2481,0.5134 0,0.2289 -0.0928,0.4145 -0.2784,0.5576 -0.1856,0.1431 -0.4301,0.2142 -0.7354,0.2151 -0.3339,-0.0008 -0.5958,-0.0798 -0.7866,-0.2394 -0.1899,-0.1587 -0.2801,-0.3486 -0.2706,-0.5689l0.0052 -0.0156 0.2792 0c0.0121,0.1986 0.0928,0.3426 0.2428,0.4319 0.15,0.0902 0.3269,0.1353 0.5299,0.1353 0.2203,0 0.3937,-0.0494 0.5212,-0.1474 0.1266,-0.0989 0.1899,-0.2159 0.1899,-0.3538z"/>
  <path id="18" class="fil0" d="M55.7852 31.1113c-0.0191,-0.0963 -0.033,-0.1795 -0.0425,-0.2489 -0.0087,-0.0694 -0.0139,-0.1405 -0.0139,-0.2133 -0.0945,0.1491 -0.2272,0.2723 -0.3989,0.3694 -0.1709,0.0971 -0.3668,0.1457 -0.5888,0.1465 -0.2697,-0.0008 -0.4787,-0.072 -0.627,-0.2151 -0.1474,-0.1431 -0.222,-0.3373 -0.222,-0.5828 0,-0.2463 0.1075,-0.4449 0.3226,-0.5975 0.2151,-0.1526 0.4952,-0.2289 0.8386,-0.2289l0.6756 0 0 -0.34c0,-0.1969 -0.0625,-0.3504 -0.1865,-0.4622 -0.1249,-0.1119 -0.3001,-0.1683 -0.5273,-0.1683 -0.2081,0 -0.3764,0.0512 -0.5038,0.1526 -0.1284,0.1015 -0.1925,0.2298 -0.1925,0.3833l-0.2819 0 -0.0052 -0.0147c-0.0095,-0.2064 0.0789,-0.3885 0.2654,-0.5455 0.1873,-0.1561 0.4319,-0.235 0.7337,-0.235 0.3009,0 0.5437,0.0772 0.7267,0.2315 0.1821,0.1544 0.2741,0.3755 0.2741,0.6634l0 1.3512c0,0.0971 0.0052,0.1908 0.0165,0.2827 0.0113,0.0911 0.0295,0.1813 0.0546,0.2714l-0.3174 0zm-1.0112 -0.2159c0.2333,0 0.4362,-0.0555 0.6071,-0.1665 0.1709,-0.111 0.287,-0.2532 0.3478,-0.4284l0 -0.5256 -0.6782 0c-0.2472,0 -0.451,0.059 -0.6123,0.1769 -0.1613,0.1171 -0.2411,0.2593 -0.2411,0.425 0,0.1561 0.0512,0.2819 0.1535,0.3764 0.1023,0.0945 0.2437,0.1423 0.4232,0.1423z"/>
  <path id="19" class="fil0" d="M58.0972 28.624l-0.2159 -0.0156c-0.1917,0 -0.3486,0.0538 -0.4709,0.1613 -0.1231,0.1075 -0.2108,0.2558 -0.2628,0.4431l0 1.8984 -0.3053 0 0 -2.7491 0.2671 0 0.0381 0.457 0 0.0312c0.0789,-0.17 0.1856,-0.3018 0.32,-0.3972 0.1336,-0.0945 0.2932,-0.1422 0.477,-0.1422 0.0373,0 0.0728,0.0035 0.1067,0.0095 0.0347,0.0061 0.0624,0.0121 0.0841,0.0191l-0.0382 0.2845z"/>
  <path id="20" class="fil0" d="M6.0676 36.652c0,-0.1284 -0.0529,-0.2402 -0.1587,-0.3365 -0.1058,-0.0954 -0.2966,-0.1734 -0.5724,-0.235 -0.3252,-0.0677 -0.5672,-0.1604 -0.7259,-0.2784 -0.1578,-0.1171 -0.2376,-0.2818 -0.2376,-0.4934 0,-0.2108 0.0885,-0.3885 0.2654,-0.5342 0.1769,-0.1457 0.4119,-0.2185 0.7025,-0.2185 0.307,0 0.5515,0.078 0.7345,0.2333 0.183,0.1544 0.2706,0.3452 0.2619,0.5724l-0.0052 0.0156 -0.2819 0c0,-0.1509 -0.065,-0.2819 -0.1943,-0.3937 -0.1301,-0.1119 -0.3009,-0.1683 -0.5151,-0.1683 -0.2194,0 -0.3859,0.0486 -0.4978,0.1448 -0.1119,0.0971 -0.1674,0.209 -0.1674,0.3382 0,0.1249 0.0477,0.2289 0.1431,0.3113 0.0963,0.0824 0.2871,0.1544 0.5732,0.2168 0.3218,0.0711 0.5655,0.1708 0.7302,0.2974 0.1656,0.1275 0.2481,0.2983 0.2481,0.5134 0,0.2289 -0.0928,0.4145 -0.2784,0.5576 -0.1856,0.1431 -0.4301,0.2142 -0.7354,0.2151 -0.3339,-0.0008 -0.5958,-0.0798 -0.7866,-0.2394 -0.1899,-0.1587 -0.2801,-0.3486 -0.2706,-0.5689l0.0052 -0.0156 0.2792 0c0.0121,0.1986 0.0928,0.3426 0.2428,0.4319 0.15,0.0902 0.3269,0.1353 0.5299,0.1353 0.2203,0 0.3937,-0.0494 0.5212,-0.1474 0.1266,-0.0989 0.1899,-0.2159 0.1899,-0.3538z"/>
  <path id="21" class="fil0" d="M8.116 37.4099c-0.3555,-0.0008 -0.6443,-0.1266 -0.8663,-0.3781 -0.222,-0.2515 -0.333,-0.5741 -0.333,-0.9687l0 -0.1396c0,-0.3963 0.1127,-0.7232 0.3365,-0.9808 0.2246,-0.2575 0.503,-0.3868 0.8351,-0.3868 0.3339,0 0.5914,0.1075 0.7736,0.3218 0.1821,0.2142 0.2732,0.503 0.2732,0.8655l0 0.2359 -1.9131 0 0 0.0841c0,0.3131 0.0789,0.5732 0.2376,0.7796 0.1578,0.2064 0.3772,0.3105 0.6565,0.3105 0.1674,0 0.3218,-0.0277 0.4623,-0.0832 0.1405,-0.0546 0.2575,-0.1292 0.3504,-0.222l0.1301 0.2082c-0.0963,0.1015 -0.2229,0.1864 -0.3799,0.2532 -0.157,0.0668 -0.3443,0.0997 -0.5628,0.1006zm-0.0277 -2.5947c-0.2342,0 -0.4258,0.0841 -0.5767,0.2515 -0.1509,0.1683 -0.2394,0.3807 -0.2645,0.6383l0.0078 0.0147 1.5749 0 0 -0.0633c0,-0.2437 -0.0633,-0.4449 -0.1916,-0.6036 -0.1275,-0.1578 -0.3113,-0.2376 -0.5498,-0.2376z"/>
  <path id="22" class="fil0" d="M11.5485 36.9087c-0.0876,0.1613 -0.2064,0.2853 -0.3547,0.3712 -0.1474,0.0867 -0.3234,0.1292 -0.5264,0.1301 -0.2897,-0.0008 -0.5169,-0.0989 -0.6817,-0.2948 -0.1639,-0.1969 -0.2463,-0.5013 -0.2463,-0.9149l0 -1.5931 0.3053 0 0 1.5983c0,0.3356 0.0572,0.5758 0.1717,0.7215 0.1136,0.1457 0.2758,0.2185 0.4865,0.2185 0.2281,0 0.4111,-0.0512 0.5472,-0.1535 0.1362,-0.1032 0.2324,-0.2428 0.288,-0.4206l0 -1.9643 0.3053 0 0 2.7491 -0.2697 0 -0.0252 -0.4475z"/>
  <path id="23" class="fil0" d="M16.1249 36.0579c0,0.4119 -0.0937,0.7398 -0.2801,0.9843 -0.1856,0.2446 -0.4423,0.3669 -0.7692,0.3677 -0.1916,-0.0008 -0.3599,-0.0364 -0.5047,-0.1092 -0.1449,-0.0729 -0.2628,-0.1769 -0.3539,-0.3105l0 1.4231 -0.3053 0 0 -3.8063 0.2333 0 0.0564 0.4293c0.0911,-0.1526 0.2098,-0.2706 0.3555,-0.3547 0.1457,-0.0832 0.3166,-0.1257 0.5134,-0.1257 0.3304,0 0.5888,0.1318 0.7744,0.3955 0.1864,0.2636 0.2801,0.6148 0.2801,1.0528l0 0.0538zm-0.3053 -0.0538c0,-0.3486 -0.0694,-0.6331 -0.2081,-0.8534 -0.1388,-0.2203 -0.3426,-0.3304 -0.6097,-0.3304 -0.2021,0 -0.3668,0.0486 -0.4943,0.1448 -0.1284,0.0963 -0.2246,0.222 -0.2905,0.3764l0 1.3312c0.0711,0.1492 0.1717,0.2662 0.3018,0.3521 0.131,0.085 0.2931,0.1284 0.4883,0.1284 0.2654,0 0.4674,-0.1006 0.6053,-0.3001 0.1379,-0.2003 0.2073,-0.4648 0.2073,-0.7952l0 -0.0538z"/>
  <path id="24" class="fil0" d="M18.5488 37.3562c-0.0191,-0.0963 -0.033,-0.1795 -0.0425,-0.2489 -0.0087,-0.0694 -0.0139,-0.1405 -0.0139,-0.2133 -0.0945,0.1491 -0.2272,0.2723 -0.3989,0.3694 -0.1709,0.0971 -0.3668,0.1457 -0.5888,0.1465 -0.2697,-0.0008 -0.4787,-0.072 -0.627,-0.2151 -0.1474,-0.1431 -0.222,-0.3373 -0.222,-0.5828 0,-0.2463 0.1075,-0.4449 0.3226,-0.5975 0.2151,-0.1526 0.4952,-0.2289 0.8386,-0.2289l0.6756 0 0 -0.34c0,-0.1969 -0.0625,-0.3504 -0.1865,-0.4622 -0.1249,-0.1119 -0.3001,-0.1683 -0.5273,-0.1683 -0.2081,0 -0.3764,0.0512 -0.5038,0.1526 -0.1284,0.1015 -0.1925,0.2298 -0.1925,0.3833l-0.2819 0 -0.0052 -0.0147c-0.0095,-0.2064 0.0789,-0.3885 0.2654,-0.5455 0.1873,-0.1561 0.4319,-0.235 0.7337,-0.235 0.3009,0 0.5437,0.0772 0.7267,0.2315 0.1821,0.1544 0.2741,0.3755 0.2741,0.6634l0 1.3512c0,0.0971 0.0052,0.1908 0.0165,0.2827 0.0113,0.0911 0.0295,0.1813 0.0546,0.2714l-0.3174 0zm-1.0112 -0.2159c0.2333,0 0.4362,-0.0555 0.6071,-0.1665 0.1709,-0.111 0.287,-0.2532 0.3478,-0.4284l0 -0.5256 -0.6782 0c-0.2472,0 -0.451,0.059 -0.6123,0.1769 -0.1613,0.1171 -0.2411,0.2593 -0.2411,0.425 0,0.1561 0.0512,0.2819 0.1535,0.3764 0.1023,0.0945 0.2437,0.1423 0.4232,0.1423z"/>
  <path id="25" class="fil0" d="M19.9459 37.3562l-0.3018 0 0 -2.7491 0.3018 0 0 2.7491zm0 -3.5366l-0.3018 0 0 -0.4267 0.3018 0 0 0.4267z"/>
  <path id="26" class="fil0" d="M21.056 34.607l0.0286 0.4778c0.0893,-0.1682 0.209,-0.2974 0.3582,-0.3902 0.1492,-0.0919 0.3261,-0.1388 0.5308,-0.1388 0.2983,0 0.5256,0.0911 0.6808,0.2732 0.1561,0.1821 0.2342,0.4666 0.2342,0.8525l0 1.6746 -0.3053 0 0 -1.672c0,-0.3148 -0.059,-0.5377 -0.176,-0.6678 -0.1179,-0.131 -0.2853,-0.196 -0.5021,-0.196 -0.2168,0 -0.392,0.0538 -0.5247,0.1604 -0.1327,0.1066 -0.2289,0.2497 -0.2879,0.4293l0 1.946 -0.3053 0 0 -2.7491 0.2688 0z"/>
  <path id="27" class="fil0" d="M24.7279 37.4099c-0.3555,-0.0008 -0.6443,-0.1266 -0.8663,-0.3781 -0.222,-0.2515 -0.333,-0.5741 -0.333,-0.9687l0 -0.1396c0,-0.3963 0.1127,-0.7232 0.3365,-0.9808 0.2246,-0.2575 0.503,-0.3868 0.8351,-0.3868 0.3339,0 0.5914,0.1075 0.7736,0.3218 0.1821,0.2142 0.2732,0.503 0.2732,0.8655l0 0.2359 -1.9131 0 0 0.0841c0,0.3131 0.0789,0.5732 0.2376,0.7796 0.1578,0.2064 0.3772,0.3105 0.6565,0.3105 0.1674,0 0.3218,-0.0277 0.4623,-0.0832 0.1405,-0.0546 0.2575,-0.1292 0.3504,-0.222l0.1301 0.2082c-0.0963,0.1015 -0.2229,0.1864 -0.3799,0.2532 -0.157,0.0668 -0.3443,0.0997 -0.5628,0.1006zm-0.0277 -2.5947c-0.2342,0 -0.4258,0.0841 -0.5767,0.2515 -0.1509,0.1683 -0.2394,0.3807 -0.2645,0.6383l0.0078 0.0147 1.5749 0 0 -0.0633c0,-0.2437 -0.0633,-0.4449 -0.1916,-0.6036 -0.1275,-0.1578 -0.3113,-0.2376 -0.5498,-0.2376z"/>
  <polygon id="28" class="fil0" points="26.7017,37.3562 26.3999,37.3562 26.3999,33.3929 26.7017,33.3929 "/>
  <path id="29" class="fil0" d="M28.6886 36.0042c0,-0.438 0.0928,-0.7892 0.2784,-1.0528 0.1856,-0.2636 0.444,-0.3955 0.7762,-0.3955 0.1882,0 0.353,0.0399 0.4943,0.1197 0.1414,0.0798 0.2584,0.1925 0.3521,0.3382l0 -1.6208 0.3044 0 0 3.9632 -0.2489 0 -0.0433 -0.3989c-0.0928,0.1457 -0.2116,0.2575 -0.3556,0.3356 -0.144,0.078 -0.3131,0.1162 -0.5082,0.1171 -0.3287,-0.0008 -0.5854,-0.1231 -0.771,-0.3677 -0.1856,-0.2445 -0.2784,-0.5723 -0.2784,-0.9843l0 -0.0538zm0.3053 0.0538c0,0.3321 0.0659,0.5958 0.1995,0.7926 0.1327,0.1969 0.333,0.2948 0.601,0.2948 0.196,0 0.3599,-0.0433 0.49,-0.1309 0.1301,-0.0876 0.2324,-0.2082 0.3053,-0.3625l0 -1.3035c-0.0693,-0.1552 -0.1682,-0.2827 -0.2948,-0.3807 -0.1275,-0.098 -0.2922,-0.1474 -0.4961,-0.1474 -0.2671,0 -0.4683,0.1101 -0.6027,0.3295 -0.1353,0.2185 -0.2021,0.5039 -0.2021,0.8542l0 0.0538z"/>
  <path id="30" class="fil0" d="M32.7489 37.4099c-0.3555,-0.0008 -0.6443,-0.1266 -0.8663,-0.3781 -0.222,-0.2515 -0.333,-0.5741 -0.333,-0.9687l0 -0.1396c0,-0.3963 0.1127,-0.7232 0.3365,-0.9808 0.2246,-0.2575 0.503,-0.3868 0.8351,-0.3868 0.3339,0 0.5914,0.1075 0.7736,0.3218 0.1821,0.2142 0.2732,0.503 0.2732,0.8655l0 0.2359 -1.9131 0 0 0.0841c0,0.3131 0.0789,0.5732 0.2376,0.7796 0.1578,0.2064 0.3772,0.3105 0.6565,0.3105 0.1674,0 0.3218,-0.0277 0.4623,-0.0832 0.1405,-0.0546 0.2575,-0.1292 0.3504,-0.222l0.1301 0.2082c-0.0963,0.1015 -0.2229,0.1864 -0.3799,0.2532 -0.157,0.0668 -0.3443,0.0997 -0.5628,0.1006zm-0.0277 -2.5947c-0.2342,0 -0.4258,0.0841 -0.5767,0.2515 -0.1509,0.1683 -0.2394,0.3807 -0.2645,0.6383l0.0078 0.0147 1.5749 0 0 -0.0633c0,-0.2437 -0.0633,-0.4449 -0.1916,-0.6036 -0.1275,-0.1578 -0.3113,-0.2376 -0.5498,-0.2376z"/>
  <path id="31" class="fil0" d="M36.6541 37.1532c0.1951,0 0.3668,-0.0581 0.5169,-0.1734 0.15,-0.1145 0.2255,-0.2749 0.2255,-0.4796l0.2714 0 0.0052 0.0147c0.0069,0.2541 -0.0937,0.4666 -0.3001,0.6383 -0.2064,0.1709 -0.4458,0.2559 -0.7189,0.2567 -0.366,-0.0008 -0.6504,-0.1292 -0.8551,-0.3868 -0.2038,-0.2575 -0.3061,-0.5871 -0.3061,-0.9878l0 -0.1076c0,-0.3989 0.1015,-0.7276 0.3053,-0.9852 0.2029,-0.2575 0.4874,-0.3868 0.8534,-0.3868 0.2948,0 0.5403,0.0893 0.7371,0.2671 0.196,0.1778 0.2914,0.4119 0.2845,0.7016l-0.0052 0.0147 -0.2714 0c0,-0.2203 -0.072,-0.3954 -0.216,-0.5273 -0.1448,-0.131 -0.3208,-0.1969 -0.529,-0.1969 -0.2879,0 -0.5021,0.1058 -0.6426,0.3174 -0.1405,0.2125 -0.2108,0.477 -0.2108,0.7952l0 0.1076c0,0.3235 0.0703,0.5906 0.2108,0.8013 0.1405,0.2107 0.3555,0.3165 0.6452,0.3165z"/>
  <path id="32" class="fil0" d="M40.1248 36.9087c-0.0876,0.1613 -0.2064,0.2853 -0.3547,0.3712 -0.1474,0.0867 -0.3234,0.1292 -0.5264,0.1301 -0.2897,-0.0008 -0.5169,-0.0989 -0.6817,-0.2948 -0.1639,-0.1969 -0.2463,-0.5013 -0.2463,-0.9149l0 -1.5931 0.3053 0 0 1.5983c0,0.3356 0.0572,0.5758 0.1717,0.7215 0.1136,0.1457 0.2758,0.2185 0.4865,0.2185 0.2281,0 0.4111,-0.0512 0.5472,-0.1535 0.1362,-0.1032 0.2324,-0.2428 0.288,-0.4206l0 -1.9643 0.3053 0 0 2.7491 -0.2697 0 -0.0252 -0.4475z"/>
  <path id="33" class="fil0" d="M42.4776 34.8689l-0.2159 -0.0156c-0.1917,0 -0.3486,0.0538 -0.4709,0.1613 -0.1231,0.1075 -0.2108,0.2558 -0.2628,0.4431l0 1.8984 -0.3053 0 0 -2.7491 0.2671 0 0.0381 0.457 0 0.0312c0.0789,-0.17 0.1856,-0.3018 0.32,-0.3972 0.1336,-0.0945 0.2932,-0.1422 0.477,-0.1422 0.0373,0 0.0728,0.0035 0.1067,0.0095 0.0347,0.0061 0.0624,0.0121 0.0841,0.0191l-0.0382 0.2845z"/>
  <path id="34" class="fil0" d="M44.6448 36.652c0,-0.1284 -0.0529,-0.2402 -0.1587,-0.3365 -0.1058,-0.0954 -0.2966,-0.1734 -0.5724,-0.235 -0.3252,-0.0677 -0.5672,-0.1604 -0.7259,-0.2784 -0.1578,-0.1171 -0.2376,-0.2818 -0.2376,-0.4934 0,-0.2108 0.0885,-0.3885 0.2654,-0.5342 0.1769,-0.1457 0.4119,-0.2185 0.7025,-0.2185 0.307,0 0.5515,0.078 0.7345,0.2333 0.183,0.1544 0.2706,0.3452 0.2619,0.5724l-0.0052 0.0156 -0.2819 0c0,-0.1509 -0.065,-0.2819 -0.1943,-0.3937 -0.1301,-0.1119 -0.3009,-0.1683 -0.5151,-0.1683 -0.2194,0 -0.3859,0.0486 -0.4978,0.1448 -0.1119,0.0971 -0.1674,0.209 -0.1674,0.3382 0,0.1249 0.0477,0.2289 0.1431,0.3113 0.0963,0.0824 0.2871,0.1544 0.5732,0.2168 0.3218,0.0711 0.5655,0.1708 0.7302,0.2974 0.1656,0.1275 0.2481,0.2983 0.2481,0.5134 0,0.2289 -0.0928,0.4145 -0.2784,0.5576 -0.1856,0.1431 -0.4301,0.2142 -0.7354,0.2151 -0.3339,-0.0008 -0.5958,-0.0798 -0.7866,-0.2394 -0.1899,-0.1587 -0.2801,-0.3486 -0.2706,-0.5689l0.0052 -0.0156 0.2792 0c0.0121,0.1986 0.0928,0.3426 0.2428,0.4319 0.15,0.0902 0.3269,0.1353 0.5299,0.1353 0.2203,0 0.3937,-0.0494 0.5212,-0.1474 0.1266,-0.0989 0.1899,-0.2159 0.1899,-0.3538z"/>
  <path id="35" class="fil0" d="M45.4791 35.9408c0,-0.405 0.111,-0.7363 0.3321,-0.9956 0.222,-0.2593 0.516,-0.3894 0.882,-0.3894 0.3677,0 0.6626,0.1301 0.8846,0.3894 0.2211,0.2593 0.3321,0.5906 0.3321,0.9956l0 0.0841c0,0.4067 -0.1101,0.7389 -0.3313,0.9973 -0.2211,0.2585 -0.5143,0.3868 -0.8802,0.3877 -0.3694,-0.0008 -0.6652,-0.1292 -0.8872,-0.3877 -0.2211,-0.2584 -0.3321,-0.5906 -0.3321,-0.9973l0 -0.0841zm0.3044 0.0841c0,0.3183 0.0806,0.5862 0.2411,0.803 0.1613,0.2168 0.3859,0.3252 0.6738,0.3252 0.2827,0 0.5048,-0.1084 0.6669,-0.3252 0.1613,-0.2168 0.2428,-0.4848 0.2428,-0.803l0 -0.0841c0,-0.3131 -0.0815,-0.5793 -0.2445,-0.7978 -0.1622,-0.2185 -0.3859,-0.3278 -0.6704,-0.3278 -0.2844,0 -0.5073,0.1093 -0.6686,0.3278 -0.1604,0.2185 -0.2411,0.4848 -0.2411,0.7978l0 0.0841z"/>
  <path id="36" class="fil0" d="M50.1916 36.652c0,-0.1284 -0.0529,-0.2402 -0.1587,-0.3365 -0.1058,-0.0954 -0.2966,-0.1734 -0.5724,-0.235 -0.3252,-0.0677 -0.5672,-0.1604 -0.7259,-0.2784 -0.1578,-0.1171 -0.2376,-0.2818 -0.2376,-0.4934 0,-0.2108 0.0885,-0.3885 0.2654,-0.5342 0.1769,-0.1457 0.4119,-0.2185 0.7025,-0.2185 0.307,0 0.5515,0.078 0.7345,0.2333 0.183,0.1544 0.2706,0.3452 0.2619,0.5724l-0.0052 0.0156 -0.2819 0c0,-0.1509 -0.065,-0.2819 -0.1943,-0.3937 -0.1301,-0.1119 -0.3009,-0.1683 -0.5151,-0.1683 -0.2194,0 -0.3859,0.0486 -0.4978,0.1448 -0.1119,0.0971 -0.1674,0.209 -0.1674,0.3382 0,0.1249 0.0477,0.2289 0.1431,0.3113 0.0963,0.0824 0.2871,0.1544 0.5732,0.2168 0.3218,0.0711 0.5655,0.1708 0.7302,0.2974 0.1656,0.1275 0.2481,0.2983 0.2481,0.5134 0,0.2289 -0.0928,0.4145 -0.2784,0.5576 -0.1856,0.1431 -0.4301,0.2142 -0.7354,0.2151 -0.3339,-0.0008 -0.5958,-0.0798 -0.7866,-0.2394 -0.1899,-0.1587 -0.2801,-0.3486 -0.2706,-0.5689l0.0052 -0.0156 0.2792 0c0.0121,0.1986 0.0928,0.3426 0.2428,0.4319 0.15,0.0902 0.3269,0.1353 0.5299,0.1353 0.2203,0 0.3937,-0.0494 0.5212,-0.1474 0.1266,-0.0989 0.1899,-0.2159 0.1899,-0.3538z"/>
  <polygon id="37" class="fil0" points="51.567,37.3562 51.2184,37.3562 51.2184,36.9399 51.567,36.9399 "/>
  <polygon class="fil1" points="1.4019,0 -0,0 -0,23.8087 -0,24.7008 -0,40.4033 1.4019,40.4033 1.4019,24.7008 58.9602,24.7008 58.9602,23.8087 1.4019,23.8087 "/>
 </g>
</svg>
